<svg width="677" height="1289" viewBox="0 0 677 1289" fill="none" xmlns="http://www.w3.org/2000/svg">
<path d="M122.798 115.278C114.157 61.8965 42.1543 52.9054 19.038 102.06C-193.024 553.065 204.692 507.445 236.642 704.824C249.578 784.74 194.754 859.973 114.42 871.895C35.3728 883.655 -38.0298 828.05 -50.7989 749.166L-81.8448 557.372C-89.7234 508.7 -152.917 494.693 -180.76 535.406C-230.595 608.196 -275.459 726.332 -254.158 857.925C-215.72 1095.39 8.73529 1257.3 246.195 1218.86C483.656 1180.42 645.569 955.968 607.131 718.508C545.304 336.557 160.245 346.615 122.798 115.278Z" fill="#DC2626" fill-opacity="0.1"/>
</svg>
