<?xml version="1.0" encoding="UTF-8" standalone="no"?>
<svg
   height="48"
   viewBox="0 -960 960 960"
   width="48"
   version="1.1"
   id="svg4"
   sodipodi:docname="back_arrow.svg"
   inkscape:version="1.2.2 (b0a8486541, 2022-12-01)"
   xmlns:inkscape="http://www.inkscape.org/namespaces/inkscape"
   xmlns:sodipodi="http://sodipodi.sourceforge.net/DTD/sodipodi-0.dtd"
   xmlns="http://www.w3.org/2000/svg"
   xmlns:svg="http://www.w3.org/2000/svg">
  <defs
     id="defs8" />
  <sodipodi:namedview
     id="namedview6"
     pagecolor="#ffffff"
     bordercolor="#cccccc"
     borderopacity="1"
     inkscape:showpageshadow="0"
     inkscape:pageopacity="1"
     inkscape:pagecheckerboard="0"
     inkscape:deskcolor="#d1d1d1"
     showgrid="false"
     inkscape:zoom="16.833333"
     inkscape:cx="24.089109"
     inkscape:cy="24"
     inkscape:window-width="1920"
     inkscape:window-height="1009"
     inkscape:window-x="0"
     inkscape:window-y="0"
     inkscape:window-maximized="1"
     inkscape:current-layer="svg4" />
  <path
     d="m 340.891,-486.065 q 0,-7.696 3.131,-14.957 3.13,-7.261 9.261,-13.391 l 197.434,-197.435 q 11.827,-11.826 27.783,-11.826 15.957,0 27.783,11.826 11.826,11.826 11.826,28.283 0,16.457 -11.826,28.283 l -169.217,169.217 169.217,169.217 q 11.826,11.826 11.826,27.783 0,15.957 -11.826,27.783 -11.826,11.826 -28.283,11.826 -16.456,0 -28.283,-11.826 L 353.283,-457.717 q -6.131,-6.13 -9.261,-13.391 -3.131,-7.261 -3.131,-14.957 z"
     id="path2"
     style="fill:#f3f4f6;fill-opacity:1" />
</svg>
