<svg width="81" height="93" viewBox="0 0 81 93" fill="none" xmlns="http://www.w3.org/2000/svg">
<path d="M26.635 51.8304H19.4364C18.2486 51.8304 17.2768 50.8585 17.2768 49.6708V42.4721C17.2768 41.2843 18.2486 40.3125 19.4364 40.3125H26.635C27.8228 40.3125 28.7946 41.2843 28.7946 42.4721V49.6708C28.7946 50.8585 27.8228 51.8304 26.635 51.8304ZM46.0714 49.6708V42.4721C46.0714 41.2843 45.0996 40.3125 43.9118 40.3125H36.7132C35.5254 40.3125 34.5536 41.2843 34.5536 42.4721V49.6708C34.5536 50.8585 35.5254 51.8304 36.7132 51.8304H43.9118C45.0996 51.8304 46.0714 50.8585 46.0714 49.6708ZM63.3482 49.6708V42.4721C63.3482 41.2843 62.3764 40.3125 61.1886 40.3125H53.99C52.8022 40.3125 51.8304 41.2843 51.8304 42.4721V49.6708C51.8304 50.8585 52.8022 51.8304 53.99 51.8304H61.1886C62.3764 51.8304 63.3482 50.8585 63.3482 49.6708ZM46.0714 66.9475V59.7489C46.0714 58.5611 45.0996 57.5893 43.9118 57.5893H36.7132C35.5254 57.5893 34.5536 58.5611 34.5536 59.7489V66.9475C34.5536 68.1353 35.5254 69.1071 36.7132 69.1071H43.9118C45.0996 69.1071 46.0714 68.1353 46.0714 66.9475ZM28.7946 66.9475V59.7489C28.7946 58.5611 27.8228 57.5893 26.635 57.5893H19.4364C18.2486 57.5893 17.2768 58.5611 17.2768 59.7489V66.9475C17.2768 68.1353 18.2486 69.1071 19.4364 69.1071H26.635C27.8228 69.1071 28.7946 68.1353 28.7946 66.9475ZM63.3482 66.9475V59.7489C63.3482 58.5611 62.3764 57.5893 61.1886 57.5893H53.99C52.8022 57.5893 51.8304 58.5611 51.8304 59.7489V66.9475C51.8304 68.1353 52.8022 69.1071 53.99 69.1071H61.1886C62.3764 69.1071 63.3482 68.1353 63.3482 66.9475ZM80.625 20.1562V83.5045C80.625 88.2736 76.7557 92.1429 71.9866 92.1429H8.63839C3.86928 92.1429 0 88.2736 0 83.5045V20.1562C0 15.3871 3.86928 11.5179 8.63839 11.5179H17.2768V2.1596C17.2768 0.971819 18.2486 0 19.4364 0H26.635C27.8228 0 28.7946 0.971819 28.7946 2.1596V11.5179H51.8304V2.1596C51.8304 0.971819 52.8022 0 53.99 0H61.1886C62.3764 0 63.3482 0.971819 63.3482 2.1596V11.5179H71.9866C76.7557 11.5179 80.625 15.3871 80.625 20.1562ZM71.9866 82.4247V28.7946H8.63839V82.4247C8.63839 83.0186 9.1243 83.5045 9.71819 83.5045H70.9068C71.5007 83.5045 71.9866 83.0186 71.9866 82.4247Z" fill="#312E81"/>
</svg>
