<svg width="539" height="1197" viewBox="0 0 539 1197" fill="none" xmlns="http://www.w3.org/2000/svg">
<path d="M-162.992 673.312H-256.508C-271.938 673.312 -284.562 660.688 -284.562 645.258V551.742C-284.562 536.312 -271.938 523.688 -256.508 523.688H-162.992C-147.562 523.688 -134.938 536.312 -134.938 551.742V645.258C-134.938 660.688 -147.562 673.312 -162.992 673.312ZM89.5 645.258V551.742C89.5 536.312 76.8754 523.688 61.4453 523.688H-32.0703C-47.5004 523.688 -60.125 536.312 -60.125 551.742V645.258C-60.125 660.688 -47.5004 673.312 -32.0703 673.312H61.4453C76.8754 673.312 89.5 660.688 89.5 645.258ZM313.938 645.258V551.742C313.938 536.312 301.313 523.688 285.883 523.688H192.367C176.937 523.688 164.312 536.312 164.312 551.742V645.258C164.312 660.688 176.937 673.312 192.367 673.312H285.883C301.313 673.312 313.938 660.688 313.938 645.258ZM89.5 869.695V776.18C89.5 760.75 76.8754 748.125 61.4453 748.125H-32.0703C-47.5004 748.125 -60.125 760.75 -60.125 776.18V869.695C-60.125 885.125 -47.5004 897.75 -32.0703 897.75H61.4453C76.8754 897.75 89.5 885.125 89.5 869.695ZM-134.938 869.695V776.18C-134.938 760.75 -147.562 748.125 -162.992 748.125H-256.508C-271.938 748.125 -284.562 760.75 -284.562 776.18V869.695C-284.562 885.125 -271.938 897.75 -256.508 897.75H-162.992C-147.562 897.75 -134.938 885.125 -134.938 869.695ZM313.938 869.695V776.18C313.938 760.75 301.313 748.125 285.883 748.125H192.367C176.937 748.125 164.312 760.75 164.312 776.18V869.695C164.312 885.125 176.937 897.75 192.367 897.75H285.883C301.313 897.75 313.938 885.125 313.938 869.695ZM538.375 261.844V1084.78C538.375 1146.74 488.11 1197 426.156 1197H-396.781C-458.735 1197 -509 1146.74 -509 1084.78V261.844C-509 199.89 -458.735 149.625 -396.781 149.625H-284.562V28.0547C-284.562 12.6246 -271.938 0 -256.508 0H-162.992C-147.562 0 -134.938 12.6246 -134.938 28.0547V149.625H164.312V28.0547C164.312 12.6246 176.937 0 192.367 0H285.883C301.313 0 313.938 12.6246 313.938 28.0547V149.625H426.156C488.11 149.625 538.375 199.89 538.375 261.844ZM426.156 1070.75V374.062H-396.781V1070.75C-396.781 1078.47 -390.469 1084.78 -382.754 1084.78H412.129C419.844 1084.78 426.156 1078.47 426.156 1070.75Z" fill="#312E81" fill-opacity="0.1"/>
</svg>
