<svg width="822" height="1172" viewBox="0 0 822 1172" fill="none" xmlns="http://www.w3.org/2000/svg">
<g clip-path="url(#clip0_243_135)">
<rect width="1172" height="1172" fill="white" fill-opacity="0.1"/>
<path d="M1025.5 596.743C1025.5 328.648 817.47 146.5 586 146.5C356.972 146.5 146.5 324.742 146.5 599.673C117.2 616.277 97.6667 647.53 97.6667 683.667V781.333C97.6667 835.05 141.617 879 195.333 879C222.192 879 244.167 857.025 244.167 830.167V595.278C244.167 408.247 388.225 244.655 575.257 239.283C768.637 233.423 927.833 388.713 927.833 581.117V927.833H586C559.142 927.833 537.167 949.808 537.167 976.667C537.167 1003.52 559.142 1025.5 586 1025.5H927.833C981.55 1025.5 1025.5 981.55 1025.5 927.833V868.257C1054.31 853.118 1074.33 823.33 1074.33 788.17V675.853C1074.33 641.67 1054.31 611.882 1025.5 596.743Z" fill="#6B7280" fill-opacity="0.1"/>
<path d="M439.5 683.667C466.47 683.667 488.333 661.803 488.333 634.833C488.333 607.863 466.47 586 439.5 586C412.53 586 390.667 607.863 390.667 634.833C390.667 661.803 412.53 683.667 439.5 683.667Z" fill="#6B7280" fill-opacity="0.1"/>
<path d="M732.5 683.667C759.47 683.667 781.333 661.803 781.333 634.833C781.333 607.863 759.47 586 732.5 586C705.53 586 683.667 607.863 683.667 634.833C683.667 661.803 705.53 683.667 732.5 683.667Z" fill="#6B7280" fill-opacity="0.1"/>
<path d="M879 538.632C855.56 399.457 734.453 293 588.442 293C440.477 293 281.28 415.572 293.977 607.975C414.595 558.653 505.425 451.22 531.307 320.347C595.278 448.778 726.64 537.167 879 538.632Z" fill="#6B7280" fill-opacity="0.1"/>
</g>
<defs>
<clipPath id="clip0_243_135">
<rect width="1172" height="1172" fill="white"/>
</clipPath>
</defs>
</svg>
