<svg width="785" height="1154" viewBox="0 0 785 1154" fill="none" xmlns="http://www.w3.org/2000/svg">
<path d="M451.839 207.427C448.904 215.344 392.847 366.633 362.472 419.244C316.157 499.465 240.484 532.059 164.159 518.669L-26.9081 895.303C-37.9667 916.937 -64.9582 925.077 -86.1254 912.856L-184.292 856.18C-205.306 844.047 -211.994 816.667 -198.699 796.12L31.9413 442.333C-17.9698 382.84 -27.3372 300.944 18.8896 220.877C49.3532 168.112 152.257 44.075 157.646 37.5744C180.531 9.27104 245.372 46.0934 230.143 81.6804L105.101 298.26C104.084 304.627 125.428 316.541 129.642 312.429C154.195 274.863 265.031 105.913 267.487 102.014C290.969 73.032 354.47 109.695 340.959 144.433C338.874 148.751 247.913 328.971 227.656 369.017C226.202 374.723 247.346 387.339 252.197 383.186L377.24 166.607C400.356 135.778 464.907 173.456 451.839 207.427ZM381.667 751.208L194.74 1021.84C180.501 1042.25 186.9 1070.49 208.374 1082.89L294.27 1132.48C314.67 1144.26 340.558 1137.32 352.336 1116.92L763.24 405.212C774.93 384.965 768.082 358.924 747.681 347.145C621.139 274.086 250.012 424.873 381.667 751.208Z" fill="#E8804A" fill-opacity="0.2"/>
</svg>
