<svg width="79" height="97" viewBox="0 0 79 97" fill="none" xmlns="http://www.w3.org/2000/svg">
<path d="M39.481 2.87995C39.6329 3.77038 42.5385 20.7832 42.5385 27.2814C42.5385 37.1898 37.2591 44.2564 29.4541 47.0982L31.9038 92.2069C32.0368 94.8024 29.9668 97 27.3462 97H15.1923C12.5906 97 10.5017 94.8213 10.6346 92.2069L13.0844 47.0982C5.26034 44.2564 0 37.1709 0 27.2814C0 20.7643 2.90553 3.77038 3.05745 2.87995C3.66514 -0.965937 11.6601 -1.02277 12.1538 3.08835V29.8391C12.4007 30.4832 15.0214 30.4453 15.1923 29.8391C15.4582 25.0459 16.6925 3.46725 16.7115 2.97468C17.3382 -0.965937 25.2002 -0.965937 25.8079 2.97468C25.8459 3.4862 27.0613 25.0459 27.3272 29.8391C27.4981 30.4453 30.1377 30.4832 30.3656 29.8391V3.08835C30.8594 -1.00383 38.8733 -0.965937 39.481 2.87995ZM62.1175 57.0066L59.269 92.0742C59.0411 94.7266 61.149 97 63.8077 97H74.4423C76.968 97 79 94.9729 79 92.4531V4.54713C79 2.04636 76.968 0.000270776 74.4423 0.000270776C58.7752 0.000270776 32.3976 33.8176 62.1175 57.0066Z" fill="#E8804A"/>
</svg>
