<svg width="824" height="886" viewBox="0 0 824 886" fill="none" xmlns="http://www.w3.org/2000/svg">
<path d="M1070.21 0H110.712C49.5665 0 0 49.5665 0 110.712V774.981C0 836.126 49.5665 885.692 110.712 885.692H1070.21C1131.36 885.692 1180.92 836.126 1180.92 774.981V110.712C1180.92 49.5665 1131.36 0 1070.21 0ZM1056.37 774.981H124.55C120.88 774.981 117.36 773.523 114.765 770.927C112.17 768.332 110.712 764.812 110.712 761.142V124.55C110.712 120.88 112.17 117.36 114.765 114.765C117.36 112.17 120.88 110.712 124.55 110.712H1056.37C1060.04 110.712 1063.56 112.17 1066.16 114.765C1068.75 117.36 1070.21 120.88 1070.21 124.55V761.142C1070.21 764.812 1068.75 768.332 1066.16 770.927C1063.56 773.523 1060.04 774.981 1056.37 774.981ZM295.231 202.971C244.278 202.971 202.971 244.278 202.971 295.231C202.971 346.183 244.278 387.49 295.231 387.49C346.183 387.49 387.49 346.183 387.49 295.231C387.49 244.278 346.183 202.971 295.231 202.971ZM221.423 664.269H959.5V479.75L757.647 277.897C746.839 267.089 729.314 267.089 718.504 277.897L442.846 553.558L351.705 462.417C340.897 451.608 323.372 451.608 312.562 462.417L221.423 553.558V664.269Z" fill="#9333EA" fill-opacity="0.1"/>
</svg>
