<svg width="94" height="71" viewBox="0 0 94 71" fill="none" xmlns="http://www.w3.org/2000/svg">
<path d="M84.9553 0H8.78848C3.93467 0 0 3.93467 0 8.78848V61.5193C0 66.3731 3.93467 70.3078 8.78848 70.3078H84.9553C89.8091 70.3078 93.7438 66.3731 93.7438 61.5193V8.78848C93.7438 3.93467 89.8091 0 84.9553 0ZM83.8567 61.5193H9.88704C9.59568 61.5193 9.31626 61.4036 9.11024 61.1976C8.90422 60.9916 8.78848 60.7121 8.78848 60.4208V9.88704C8.78848 9.59568 8.90422 9.31626 9.11024 9.11024C9.31626 8.90422 9.59568 8.78848 9.88704 8.78848H83.8567C84.1481 8.78848 84.4275 8.90422 84.6335 9.11024C84.8395 9.31626 84.9553 9.59568 84.9553 9.88704V60.4208C84.9553 60.7121 84.8395 60.9916 84.6335 61.1976C84.4275 61.4036 84.1481 61.5193 83.8567 61.5193ZM23.4359 16.1122C19.3912 16.1122 16.1122 19.3912 16.1122 23.4359C16.1122 27.4807 19.3912 30.7597 23.4359 30.7597C27.4807 30.7597 30.7597 27.4807 30.7597 23.4359C30.7597 19.3912 27.4807 16.1122 23.4359 16.1122ZM17.577 52.7309H76.1668V38.0834L60.1434 22.06C59.2854 21.202 57.8943 21.202 57.0361 22.06L35.1539 43.9424L27.919 36.7075C27.061 35.8495 25.6699 35.8495 24.8117 36.7075L17.577 43.9424V52.7309Z" fill="#9333EA"/>
</svg>
