<svg width="935" height="1493" viewBox="0 0 935 1493" fill="none" xmlns="http://www.w3.org/2000/svg">
<path d="M357.637 1214.17C322.386 615.755 294.613 539.695 388.629 384.619C517.409 172.199 794.005 104.397 1006.42 233.177C1218.84 361.958 1286.65 638.553 1157.87 850.973C1063.85 1006.05 983.57 1016.6 436.692 1262.1C400.864 1278.11 360.009 1253.34 357.637 1214.17ZM676.091 778.054C764.599 831.713 879.847 803.462 933.506 714.953C987.164 626.445 958.913 511.197 870.405 457.538C781.896 403.88 666.648 432.131 612.99 520.639C559.331 609.148 587.582 724.396 676.091 778.054Z" fill="#0284C7" fill-opacity="0.2"/>
</svg>
