<svg width="716" height="913" viewBox="0 0 716 913" fill="none" xmlns="http://www.w3.org/2000/svg">
<path d="M706.197 825.088L192.634 26.2131C182.131 9.87895 164.05 0 144.631 0C125.212 0 107.13 9.87895 96.6268 26.2131L-416.936 825.088C-422.478 833.708 -425.596 843.662 -425.963 853.904C-426.33 864.145 -423.933 874.297 -419.022 883.292C-414.109 892.285 -406.865 899.789 -398.052 905.016C-389.238 910.243 -379.179 913.001 -368.932 913H658.193C679.074 913 698.28 901.605 708.283 883.274C713.194 874.282 715.592 864.134 715.224 853.895C714.857 843.656 711.739 833.705 706.197 825.088ZM144.631 162.592L296.898 399.438H144.631L30.5056 513.562L-37.3631 445.694L144.631 162.592Z" fill="#9DCE7F" fill-opacity="0.1"/>
</svg>
