<svg width="52" height="73" viewBox="0 0 52 73" fill="none" xmlns="http://www.w3.org/2000/svg">
<path d="M11.4993 66.475C10.9404 68.8906 12.3011 71.3357 14.5393 71.9382C14.8801 72.0311 15.2209 72.0719 15.5579 72.0719C17.4291 72.0719 19.132 70.7065 19.6086 68.6611L22.9046 54.4478L16.0123 47.018L11.4993 66.475ZM13.4437 38.8675L18.8186 16.4699C19.1045 15.2846 18.4085 14.0839 17.262 13.7868C11.5319 12.306 5.7248 15.9082 4.29229 21.8346L0.992402 35.6482C0.706421 36.8334 1.40244 38.0342 2.54898 38.3312L10.849 40.4779C11.9968 40.7735 13.1577 40.0528 13.4437 38.8675ZM48.9837 22.5229H46.8943C45.74 22.5229 44.805 23.5308 44.805 24.7752V27.0275H40.2672L34.1584 20.4424C32.7102 18.8784 30.7815 18.0183 28.7313 18.0183C25.2029 18.0183 22.1406 20.5944 21.284 24.2853L17.7687 39.4489C17.5938 40.2036 17.6032 40.9943 17.7959 41.7439C17.9885 42.4936 18.358 43.1767 18.8682 43.7268L30.1795 55.9202V67.5688C30.1795 70.0561 32.0507 72.0733 34.3582 72.0733C36.6656 72.0733 38.5369 70.0561 38.5369 67.5688V55.9202C38.5369 53.5145 37.6672 51.2523 36.0884 49.5504L29.9744 42.9597C29.994 42.8893 30.0384 42.8344 30.0554 42.7612L32.6527 31.5602L35.5818 34.7177C36.3653 35.5623 37.4282 36.0381 38.5356 36.0381H44.8037V69.8225C44.8037 71.0669 45.7387 72.0748 46.893 72.0748H48.9824C50.1368 72.0748 51.0718 71.0669 51.0718 69.8225V24.7752C51.0731 23.5308 50.1381 22.5229 48.9837 22.5229ZM32.2688 13.5138C35.7306 13.5138 38.5369 10.4886 38.5369 6.75688C38.5369 3.02511 35.7306 0 32.2688 0C28.807 0 26.0007 3.02511 26.0007 6.75688C26.0007 10.4886 28.807 13.5138 32.2688 13.5138Z" fill="#DC2626"/>
</svg>
