<svg width="59" height="82" viewBox="0 0 59 82" fill="none" xmlns="http://www.w3.org/2000/svg">
<path d="M0.857184 68.0925C0.317158 67.5507 0.0321444 66.8733 0.00214296 66.0606C-0.0278585 65.2478 0.257155 64.5705 0.857184 64.0286L14.5465 50.3681C16.0824 48.8355 18.5702 48.8389 20.1019 50.3758L20.2155 50.4898C22.641 52.9235 20.9173 57.0749 17.4814 57.0749C16.4608 57.0749 15.4818 57.479 14.7584 58.199L4.81738 68.0925C4.27735 68.6344 3.61732 68.9053 2.83728 68.9053C2.05724 68.9053 1.39721 68.6344 0.857184 68.0925ZM38.749 13.185C36.9489 13.185 35.4039 12.5378 34.1138 11.2434C32.8237 9.94897 32.1787 8.39868 32.1787 6.59251C32.1787 4.78634 32.8237 3.23605 34.1138 1.94163C35.4039 0.64721 36.9489 0 38.749 0C40.5491 0 42.0942 0.64721 43.3842 1.94163C44.6743 3.23605 45.3193 4.78634 45.3193 6.59251C45.3193 8.39868 44.6743 9.94897 43.3842 11.2434C42.0942 12.5378 40.5491 13.185 38.749 13.185ZM44.1043 52.4692C42.9417 55.1479 39.6688 54.837 37.6074 52.7686L32.5862 47.7304C31.4606 46.6011 30.8286 45.0717 30.8286 43.4772V37.5907C30.8286 34.7233 27.3189 33.0404 24.7983 34.4075C21.9528 35.9508 21.1103 39.9184 23.3954 42.2113L41.2425 60.1187C43.2762 62.1592 46.0386 63.3062 48.9195 63.3062C49.2795 63.3062 49.6095 63.3664 49.9096 63.4868C50.2096 63.6072 50.5096 63.8179 50.8096 64.1189L58.19 71.5242C58.49 71.8253 58.7 72.1263 58.82 72.4273C58.94 72.7283 59 73.0595 59 73.4207C59 73.7819 58.94 74.1131 58.82 74.4141C58.7 74.7151 58.49 75.0162 58.19 75.3172L52.3397 81.1872C52.0397 81.4883 51.7397 81.699 51.4396 81.8194C51.1396 81.9398 50.8096 82 50.4496 82C50.0896 82 49.7596 81.9398 49.4595 81.8194C49.1595 81.699 48.8595 81.4883 48.5595 81.1872L41.1791 73.7819C40.8791 73.4809 40.6691 73.1799 40.5491 72.8789C40.4291 72.5778 40.3691 72.2467 40.3691 71.8855C40.3691 68.9938 39.2229 66.22 37.1816 64.1718L12.2956 39.2017C11.7946 38.699 11.0541 38.5437 10.3526 38.652C9.96263 38.7122 9.61761 38.7423 9.31759 38.7423C8.59756 38.7423 8.02753 38.5015 7.60751 38.0198C7.18749 37.5382 6.97748 36.9662 6.97748 36.304C6.97748 35.6417 7.18749 35.0999 7.60751 34.6784C8.02753 34.257 8.59756 34.0162 9.31759 33.9559C12.2577 33.8355 15.5879 32.9626 19.3081 31.337C23.0283 29.7115 25.8184 27.8752 27.6785 25.8282L32.8987 20.1388C33.7388 19.1755 34.5638 18.4982 35.3739 18.1068C36.1839 17.7155 37.1589 17.5198 38.299 17.5198C40.2791 17.5198 41.9442 18.1971 43.2942 19.5518C44.6443 20.9064 45.3193 22.5771 45.3193 24.5639V46.9604C45.3193 48.7665 44.9143 50.6028 44.1043 52.4692Z" fill="#DC2626"/>
</svg>
