<svg width="81" height="81" viewBox="0 0 81 81" fill="none" xmlns="http://www.w3.org/2000/svg">
<path d="M10.2062 76.7625C9.41875 77.1563 8.6875 77.1 8.0125 76.5938C7.3375 76.0875 7 75.3563 7 74.4C7 73.8938 7.18281 73.4016 7.54844 72.9234C7.91406 72.4453 8.40625 72.0938 9.025 71.8688C10.375 71.4188 11.5984 70.8281 12.6953 70.0969C13.7922 69.3656 15.4094 69 17.5469 69C20.1344 69 22.2438 69.6047 23.875 70.8141C25.5063 72.0234 27.3906 72.6281 29.5281 72.6281C31.6656 72.6281 33.4234 72.0234 34.8016 70.8141C36.1797 69.6047 38.1625 69 40.75 69C43.3375 69 45.4469 69.6047 47.0781 70.8141C48.7094 72.0234 50.5938 72.6281 52.7313 72.6281C54.8688 72.6281 56.6406 72.0234 58.0469 70.8141C59.4531 69.6047 61.45 69 64.0375 69C66.175 69 67.7922 69.3656 68.8891 70.0969C69.9859 70.8281 71.1813 71.4188 72.475 71.8688C73.0938 72.0938 73.5859 72.4313 73.9516 72.8813C74.3172 73.3313 74.5 73.8375 74.5 74.4C74.5 75.3563 74.1625 76.0875 73.4875 76.5938C72.8125 77.1 72.0813 77.1563 71.2938 76.7625C70.1688 76.2 69.0438 75.6234 67.9188 75.0328C66.7938 74.4422 65.5 74.1469 64.0375 74.1469C61.9 74.1469 60.0719 74.7375 58.5531 75.9188C57.0344 77.1 55.0938 77.6906 52.7313 77.6906C50.3688 77.6906 48.3156 77.1 46.5719 75.9188C44.8281 74.7375 42.8875 74.1469 40.75 74.1469C38.6125 74.1469 36.7422 74.7375 35.1391 75.9188C33.5359 77.1 31.5531 77.6906 29.1906 77.6906C26.8281 77.6906 24.8313 77.1 23.2 75.9188C21.5688 74.7375 19.6844 74.1469 17.5469 74.1469C16.0844 74.1469 14.7906 74.4422 13.6656 75.0328C12.5406 75.6234 11.3875 76.2 10.2062 76.7625ZM9.95312 60.9844C9.16563 61.3219 8.47656 61.2516 7.88594 60.7734C7.29531 60.2953 7 59.6063 7 58.7063C7 58.2 7.16875 57.7359 7.50625 57.3141C7.84375 56.8922 8.29375 56.5969 8.85625 56.4281C10.2625 55.9781 11.5281 55.3875 12.6531 54.6563C13.7781 53.925 15.4094 53.5594 17.5469 53.5594C20.1344 53.5594 22.1875 54.0938 23.7063 55.1625C25.225 56.2313 27.0531 56.7656 29.1906 56.7656C31.3281 56.7656 33.1422 56.2313 34.6328 55.1625C36.1234 54.0938 38.1625 53.5594 40.75 53.5594C43.3375 53.5594 45.3906 54.0938 46.9094 55.1625C48.4281 56.2313 50.2563 56.7656 52.3937 56.7656C54.5312 56.7656 56.3594 56.2313 57.8781 55.1625C59.3969 54.0938 61.45 53.5594 64.0375 53.5594C66.175 53.5594 67.8063 53.925 68.9313 54.6563C70.0563 55.3875 71.2938 55.9781 72.6438 56.4281C73.2063 56.5969 73.6562 56.8922 73.9938 57.3141C74.3313 57.7359 74.5 58.2 74.5 58.7063C74.5 59.6063 74.2047 60.2953 73.6141 60.7734C73.0234 61.2516 72.3344 61.3219 71.5469 60.9844C70.3656 60.4219 69.1984 59.8313 68.0453 59.2125C66.8922 58.5938 65.5563 58.2844 64.0375 58.2844C61.9 58.2844 60.0719 58.875 58.5531 60.0563C57.0344 61.2375 55.0938 61.8281 52.7313 61.8281C50.3688 61.8281 48.3156 61.2375 46.5719 60.0563C44.8281 58.875 42.8875 58.2844 40.75 58.2844C38.6125 58.2844 36.7984 58.875 35.3078 60.0563C33.8172 61.2375 31.8906 61.8281 29.5281 61.8281C27.1656 61.8281 25.1125 61.2375 23.3687 60.0563C21.625 58.875 19.6844 58.2844 17.5469 58.2844C16.0281 58.2844 14.6781 58.5938 13.4969 59.2125C12.3156 59.8313 11.1344 60.4219 9.95312 60.9844ZM29.1906 46.3875C28.1781 46.3875 27.2641 46.1906 26.4484 45.7969C25.6328 45.4031 25 44.8969 24.55 44.2781L35.9406 32.8875L31.3844 28.3313C29.8656 26.8125 28.3328 25.6875 26.7859 24.9563C25.2391 24.225 23.3969 23.775 21.2594 23.6063C20.3594 23.4938 19.6 23.1281 18.9812 22.5094C18.3625 21.8906 18.0531 21.1313 18.0531 20.2313C18.0531 19.275 18.3766 18.4734 19.0234 17.8266C19.6703 17.1797 20.4719 16.9125 21.4281 17.025C24.4656 17.3063 27.0813 17.9531 29.275 18.9656C31.4688 19.9781 33.6063 21.525 35.6875 23.6063L57.0344 44.9531C56.4156 45.4594 55.6984 45.825 54.8828 46.05C54.0672 46.275 53.2375 46.3875 52.3937 46.3875C50.2563 46.3875 48.4141 45.7969 46.8672 44.6156C45.3203 43.4344 43.2812 42.8438 40.75 42.8438C38.2188 42.8438 36.1938 43.4344 34.675 44.6156C33.1562 45.7969 31.3281 46.3875 29.1906 46.3875ZM56.6125 33.225C54.3625 33.225 52.4641 32.4516 50.9172 30.9047C49.3703 29.3578 48.5969 27.4594 48.5969 25.2094C48.5969 22.9594 49.3703 21.0609 50.9172 19.5141C52.4641 17.9672 54.3625 17.1938 56.6125 17.1938C58.8625 17.1938 60.7609 17.9672 62.3078 19.5141C63.8547 21.0609 64.6281 22.9594 64.6281 25.2094C64.6281 27.4594 63.8547 29.3578 62.3078 30.9047C60.7609 32.4516 58.8625 33.225 56.6125 33.225Z" fill="#DC2626"/>
</svg>
