<?xml version="1.0" encoding="UTF-8" standalone="no"?>
<svg
   viewBox="0,0,256,256"
   width="48px"
   height="48px"
   fill-rule="nonzero"
   version="1.1"
   id="svg11"
   sodipodi:docname="facebook.svg"
   inkscape:version="1.2.2 (b0a8486541, 2022-12-01)"
   xmlns:inkscape="http://www.inkscape.org/namespaces/inkscape"
   xmlns:sodipodi="http://sodipodi.sourceforge.net/DTD/sodipodi-0.dtd"
   xmlns="http://www.w3.org/2000/svg"
   xmlns:svg="http://www.w3.org/2000/svg">
  <defs
     id="defs15" />
  <sodipodi:namedview
     id="namedview13"
     pagecolor="#ffffff"
     bordercolor="#cccccc"
     borderopacity="1"
     inkscape:showpageshadow="0"
     inkscape:pageopacity="1"
     inkscape:pagecheckerboard="0"
     inkscape:deskcolor="#d1d1d1"
     showgrid="false"
     inkscape:zoom="16.833333"
     inkscape:cx="24.029703"
     inkscape:cy="24"
     inkscape:window-width="1920"
     inkscape:window-height="1009"
     inkscape:window-x="0"
     inkscape:window-y="0"
     inkscape:window-maximized="1"
     inkscape:current-layer="svg11" />
  <g
     fill-opacity="0"
     fill="#dddddd"
     fill-rule="nonzero"
     stroke="none"
     stroke-width="1"
     stroke-linecap="butt"
     stroke-linejoin="miter"
     stroke-miterlimit="10"
     stroke-dasharray=""
     stroke-dashoffset="0"
     font-family="none"
     font-weight="none"
     font-size="none"
     text-anchor="none"
     style="mix-blend-mode: normal"
     id="g3">
    <path
       d="M0,256v-256h256v256z"
       id="bgRectangle" />
  </g>
  <g
     fill="#000000"
     fill-rule="nonzero"
     stroke="none"
     stroke-width="1"
     stroke-linecap="butt"
     stroke-linejoin="miter"
     stroke-miterlimit="10"
     stroke-dasharray="none"
     stroke-dashoffset="0"
     font-family="none"
     font-weight="none"
     font-size="none"
     text-anchor="none"
     style="mix-blend-mode:normal"
     id="g9"
     transform="matrix(0.85229725,0,0,0.85229725,18.905941,18.905941)">
    <g
       transform="scale(5.33333)"
       id="g7">
      <path
         d="M 24,4 C 12.97207,4 4,12.97207 4,24 4,35.02793 12.97207,44 24,44 35.02793,44 44,35.02793 44,24 44,12.97207 35.02793,4 24,4 Z m 0,3 c 9.40662,0 17,7.59339 17,17 0,8.38077 -6.03282,15.30637 -14,16.7207 V 29 h 3.625 c 0.504,0 0.93019,-0.37695 0.99219,-0.87695 l 0.375,-3 c 0.036,-0.284 -0.05414,-0.56916 -0.24414,-0.78516 C 31.55905,24.12289 31.287,24 31,24 h -4 v -3.5 c 0,-1.103 0.897,-2 2,-2 h 2 c 0.552,0 1,-0.447 1,-1 V 14.125 C 32,13.607 31.60484,13.17491 31.08984,13.12891 31.03084,13.12391 29.61998,13 27.83398,13 23.42698,13 21,15.61619 21,20.36719 V 24 h -4 c -0.552,0 -1,0.447 -1,1 v 3 c 0,0.553 0.448,1 1,1 h 4 V 40.7207 C 13.03282,39.30637 7,32.38077 7,24 7,14.59339 14.59339,7 24,7 Z"
         id="path5" />
    </g>
  </g>
</svg>
