<svg xmlns="http://www.w3.org/2000/svg" fill="none" viewBox="0 0 24 24">
   <style>
        path { fill: #000; }
        @media (prefers-color-scheme: dark) {
            path { fill: #FFF; }
        }
   </style>
   <path d="m 15.027012,20.130038 c 0.135648,-0.268038 0.176406,-0.384691 0.350549,-0.539655 0.130683,-0.116283 0.227087,-0.154353 0.374364,-0.147819 0.209907,0.0093 0.424204,0.139936 0.881022,0.537037 0.357616,0.310864 0.397289,0.338889 0.675216,0.47695 0.683517,0.339544 1.445991,0.372361 2.288848,0.0985 0.202815,-0.0659 0.816173,-0.335914 0.826461,-0.363832 0.02085,-0.05657 -0.177533,-0.86775 -0.299885,-1.226256 -0.188967,-0.553692 -0.489033,-1.175287 -0.868816,-1.799786 -0.0958,-0.157526 -0.232568,-0.413873 -0.303932,-0.569658 -0.117356,-0.256209 -0.133745,-0.307383 -0.171577,-0.536073 -0.0483,-0.291956 -0.06867,-0.538351 -0.101758,-1.230847 -0.05954,-1.245911 -0.180636,-1.672874 -0.568079,-2.003001 L 17.97773,12.713389 17.96199,12.402898 C 17.896035,11.102917 17.471838,9.6171848 16.792115,8.3054729 16.554543,7.8470226 16.477454,7.7183889 16.16921,7.2661198 14.572712,4.9236402 13.068436,3.8487286 10.764492,3.4040654 9.9100278,3.239155 9.2052572,3.218584 8.4304255,3.3359352 7.7974088,3.4318114 7.2513861,3.5888005 6.6339337,3.8524477 5.3148742,4.4156766 4.2834324,5.2972097 3.796244,6.2777128 3.7036212,6.464129 3.5584601,6.9046763 3.5765498,6.9444528 c 0.00432,0.00931 0.024788,0.00208 0.045675,-0.016179 C 3.9565595,6.6364758 4.4172114,6.2975417 4.8102453,6.0541642 5.0883005,5.8819835 5.8946679,5.5175365 6.2102051,5.4214296 7.2836441,5.0944978 8.2972272,5.0456785 9.3738389,5.269066 c 2.1043221,0.4366324 4.0663171,1.9149149 5.3641671,4.041685 0.209342,0.3430425 0.623298,1.190598 0.75727,1.554038 0.12888,0.349612 0.14887,0.445806 0.134882,0.440647 -0.0251,-0.0093 0.407327,-0.56161 0.02301,-1.225605 C 14.978,8.9132733 14.937657,9.0716571 14.699731,8.818566 14.596058,8.7082868 13.630261,8.2255796 13.378564,8.1216784 12.42762,7.7291202 11.208459,7.4758423 10.097303,7.4400057 8.9489768,7.4029729 7.7929025,7.5648324 6.8207937,7.8987383 6.4939639,8.0109991 5.7659511,8.3531599 5.4724095,8.5324708 4.1916513,9.3148229 3.5949342,10.268669 3.6940372,11.375185 c 0.0083,0.0925 0.020588,0.173629 0.027345,0.180286 0.00672,0.0066 0.053063,-0.04953 0.1028984,-0.124851 0.152522,-0.230514 0.4486828,-0.576002 0.6797957,-0.79302 0.7552403,-0.709184 1.7430164,-1.1636172 2.914449,-1.3408087 0.9525248,-0.1440837 1.9434133,-0.092872 3.1035427,0.1603868 1.515509,0.330841 2.535783,0.8017689 3.361617,1.5516199 0.18857,0.17122 0.487543,0.488931 0.569847,0.605561 l 0.04656,0.06597 -0.126293,-0.06372 c -0.151123,-0.07626 -0.438565,-0.145794 -0.929082,-0.22477 -0.45984,-0.07404 -0.701002,-0.05948 -0.73938,0.04465 -0.04833,0.13115 0.595101,1.075358 0.939495,1.378656 0.04338,0.0382 0.08038,0.07273 0.08223,0.07673 0.0019,0.004 -0.06029,0.03667 -0.138063,0.07259 -0.361773,0.167163 -0.922343,0.505442 -1.328808,0.802108 -0.386841,0.282352 -0.630907,0.508704 -0.885828,0.82155 -0.290835,0.356909 -0.52729,0.745124 -0.846513,1.389817 -0.5464872,1.103674 -0.6061138,1.221032 -0.7270366,1.430982 -0.1552783,0.269586 -0.3750123,0.586737 -0.4961567,0.716116" />
</svg>
