<?xml version="1.0" encoding="UTF-8" standalone="no"?>
<!-- Created with Inkscape (http://www.inkscape.org/) -->

<svg
   version="1.1"
   id="svg97"
   width="4800"
   height="4800"
   viewBox="0 0 4800 4800"
   sodipodi:docname="logo.svg"
   inkscape:export-filename="favicon.svg"
   inkscape:export-xdpi="1"
   inkscape:export-ydpi="1"
   xmlns:inkscape="http://www.inkscape.org/namespaces/inkscape"
   xmlns:sodipodi="http://sodipodi.sourceforge.net/DTD/sodipodi-0.dtd"
   xmlns="http://www.w3.org/2000/svg"
   xmlns:svg="http://www.w3.org/2000/svg">
  <defs
     id="defs101" />
  <sodipodi:namedview
     id="namedview99"
     pagecolor="#ffffff"
     bordercolor="#cccccc"
     borderopacity="1"
     inkscape:showpageshadow="0"
     inkscape:pageopacity="1"
     inkscape:pagecheckerboard="0"
     inkscape:deskcolor="#d1d1d1"
     showgrid="false" />
  <g
     inkscape:groupmode="layer"
     inkscape:label="Image"
     id="g103">
    <path
       d="m 3094.1313,4264.3149 c 31.1058,-61.4639 40.4523,-88.2143 80.3851,-123.7493 29.9673,-26.665 52.0739,-35.3945 85.846,-33.8963 48.1342,2.1346 97.2752,32.0889 202.0288,123.1488 82.0057,71.2847 91.1034,77.711 154.8353,109.3702 156.7388,77.8619 331.5833,85.387 524.8602,22.5885 46.5079,-15.1107 187.1583,-77.029 189.5173,-83.4308 4.7811,-12.9713 -40.71,-198.9858 -68.7671,-281.1955 -43.332,-126.9682 -112.1411,-269.5072 -199.2297,-412.7125 -21.9683,-36.1229 -53.3307,-94.906 -69.6955,-130.6292 -26.9109,-58.7516 -30.6694,-70.4866 -39.3448,-122.9282 -11.0743,-66.9491 -15.7459,-123.4505 -23.3342,-282.2479 -13.6533,-285.7024 -41.4219,-383.6101 -130.2671,-459.3121 l -30.1994,-25.7319 -3.6114,-71.1995 c -15.1246,-298.101 -112.3976,-638.7973 -268.2666,-939.5885 -54.4781,-105.1286 -72.1551,-134.6254 -142.8391,-238.3364 C 2989.9526,777.3055 2645.004,530.81534 2116.6823,428.84912 1920.7435,391.0329 1759.1308,386.31609 1581.4527,413.22641 c -145.1583,21.98561 -270.368,57.98484 -411.9568,118.44221 -302.47649,129.15547 -538.99813,331.30122 -650.71642,556.14268 -21.23955,42.7473 -54.52671,143.7703 -50.37844,152.8913 0.98428,2.133 5.68494,0.468 10.47269,-3.7095 76.66752,-66.9127 182.30036,-144.6345 272.42792,-200.4435 63.7609,-39.48329 248.67102,-123.05573 321.02745,-145.09373 246.1521,-74.96987 478.5792,-86.16421 725.4588,-34.93918 482.5467,100.12535 932.4553,439.11341 1230.0679,926.80691 48.0047,78.6641 142.9297,273.0187 173.651,356.3598 29.5538,80.1703 34.1381,102.2285 30.9301,101.0459 -5.7549,-2.1207 93.4051,-128.7842 5.2796,-281.0462 -154.8243,-267.5058 -164.0757,-231.1862 -218.6346,-289.2232 -23.7735,-25.2882 -245.2423,-135.9787 -302.9595,-159.8047 -218.063,-90.0185 -497.6315,-148.0981 -752.4327,-156.3155 -263.3251,-8.4924 -528.4267,28.6239 -751.3426,105.1926 -74.9464,25.7427 -241.88861,104.2045 -309.20092,145.3226 -293.69341,179.4026 -430.52778,398.131 -407.80231,651.8683 1.90002,21.2106 4.72166,39.8151 6.27037,41.3417 1.54972,1.5266 12.16744,-11.3567 23.59612,-28.6298 34.97483,-52.8596 102.88815,-132.0843 155.88494,-181.8487 173.18602,-162.6247 399.6947,-266.8314 668.3183,-307.4639 218.4256,-33.0399 445.6483,-21.2968 711.6795,36.7789 347.5242,75.8656 581.4857,183.8551 770.8593,355.8047 43.2414,39.2629 111.7995,112.1178 130.6727,138.8625 l 10.6763,15.129 -28.9603,-14.6129 c -34.6543,-17.4861 -100.5683,-33.4325 -213.0499,-51.5424 -105.4466,-16.9781 -160.7482,-13.6385 -169.5487,10.2395 -11.0831,30.0742 136.4641,246.5922 215.4376,316.1423 9.9479,8.76 18.4321,16.6781 18.8555,17.5957 0.4234,0.9178 -13.8235,8.4079 -31.6598,16.6446 -82.9585,38.3327 -211.5044,115.904 -304.7115,183.9333 -88.707,64.7466 -144.6742,116.652 -203.1309,188.391 -66.6921,81.8439 -120.9138,170.8661 -194.1159,318.7018 -125.3157,253.0855 -138.9888,279.9972 -166.7177,328.1411 -35.6072,61.8195 -85.9952,134.5461 -113.7749,164.2145"
       style="fill:#999999;fill-opacity:1;stroke-width:4.92704"
       id="path1117"
       sodipodi:nodetypes="cssssscsscscscsscscsscccccscsssssscscsssssscssssscssssc" />
  </g>
</svg>
