<?xml version="1.0" encoding="UTF-8" standalone="no"?>
<!-- Created with Inkscape (http://www.inkscape.org/) -->

<svg
   version="1.1"
   id="svg97"
   width="4800"
   height="4800"
   viewBox="0 0 4800 4800"
   sodipodi:docname="logo.svg"
   inkscape:export-filename="../Visit-Dibra-website/public/logo.svg"
   inkscape:export-xdpi="10"
   inkscape:export-ydpi="10"
   xmlns:inkscape="http://www.inkscape.org/namespaces/inkscape"
   xmlns:sodipodi="http://sodipodi.sourceforge.net/DTD/sodipodi-0.dtd"
   xmlns="http://www.w3.org/2000/svg"
   xmlns:svg="http://www.w3.org/2000/svg">
  <defs
     id="defs101" />
  <sodipodi:namedview
     id="namedview99"
     pagecolor="#ffffff"
     bordercolor="#cccccc"
     borderopacity="1"
     inkscape:showpageshadow="0"
     inkscape:pageopacity="1"
     inkscape:pagecheckerboard="0"
     inkscape:deskcolor="#d1d1d1"
     showgrid="false" />
  <g
     inkscape:groupmode="layer"
     inkscape:label="Image"
     id="g103">
    <path
       style="fill:#1f2937;fill-opacity:1;stroke-width:1.8052"
       d="m 2306.1215,4799.8934 c -131.437,-6.9478 -206.9568,-14.8291 -311.3962,-32.4973 -278.84,-47.1718 -554.6818,-147.2017 -802.4096,-290.9814 C 916.99719,4316.6214 668.71375,4094.7929 475.64561,3836.1063 387.188,3717.5846 319.74645,3607.8423 252.10708,3472.3593 200.74305,3369.4761 166.1256,3287.1686 128.73021,3179.015 -22.386683,2741.9579 -41.449175,2255.2654 74.853201,1803.4557 129.80562,1589.9774 217.58252,1377.2612 329.98492,1185.1761 501.17239,892.63325 743.26589,630.40712 1023.8556,433.60165 1187.1767,319.04863 1368.3025,223.73748 1561.1229,150.88354 2039.1444,-29.729129 2586.6561,-49.214902 3078.7454,96.871889 c 242.6683,72.041041 480.586,185.333631 683.2666,325.360791 209.1092,144.46889 398.6685,325.37565 551.6419,526.46281 195.4659,256.94481 339.3821,556.42941 415.8884,865.45041 79.1939,319.876 92.2105,659.344 37.7985,985.7779 -70.0329,420.1483 -255.8716,822.5394 -528.5689,1144.4942 -90.5093,106.8584 -192.0613,208.3975 -295.3377,295.3002 -357.5757,300.8847 -802.1781,492.7947 -1264.5397,545.8308 -94.7531,10.869 -149.0782,13.8681 -261.7534,14.451 -54.6072,0.2822 -104.566,0.2343 -111.0196,-0.1072 z m 148.9287,-183.0348 c 113.0889,-3.0461 203.197,-11.4929 309.3205,-28.9958 338.2916,-55.7941 665.4193,-193.206 943.4854,-396.3169 42.6636,-31.1633 44.0825,-32.2406 44.157,-33.5277 0.085,-1.4731 -82.9083,-66.1768 -159.6895,-124.498 -62.8537,-47.7421 -106.0641,-79.9594 -267.169,-199.1988 -61.5572,-45.5607 -148.8835,-110.5449 -194.0585,-144.4093 -45.1751,-33.8643 -89.4475,-66.5497 -98.3832,-72.6339 -78.7005,-53.5873 -169.7281,-91.9812 -268.634,-113.3052 -22.1695,-4.7798 -68.0886,-12.3998 -87.1792,-14.4672 l -11.0209,-1.1935 -1.1701,-67.9992 c -0.6437,-37.3996 -1.2345,-149.6393 -1.3131,-249.4215 -0.1561,-198.8959 -0.3934,-193.7099 10.8919,-238.2039 2.925,-11.5312 10.7193,-36.3724 17.3203,-55.2025 20.4891,-58.4445 22.9525,-69.6783 29.6764,-135.3276 10.7282,-104.7397 19.9345,-125.5431 88.028,-198.9108 14.9169,-16.0723 31.9721,-35.1622 37.9003,-42.4221 25.9859,-31.8228 39.6043,-60.7809 46.8055,-99.5265 3.8648,-20.7945 4.1422,-74.1873 0.6062,-116.7578 -6.9421,-83.5815 1.1696,-152.1302 23.4115,-197.8459 11.5552,-23.7498 23.078,-34.948 41.8176,-40.6402 14.0623,-4.2712 22.7567,-3.7819 33.762,1.9004 15.6859,8.0987 27.4364,25.607 48.3084,71.9803 16.3398,36.3028 18.3799,39.8372 34.7224,60.1521 40.1927,49.9624 97.2053,79.3041 171.1444,88.0798 17.7915,2.1117 74.0877,3.1023 75.8551,1.3346 3.5816,-3.5815 17.0006,-72.4476 20.2855,-104.104 5.0733,-48.8915 4.0615,-106.8734 -2.9297,-167.8832 -1.7636,-15.3893 -3.1743,-39.7595 -3.1352,-54.1559 0.066,-23.6763 0.6164,-28.1573 5.78,-46.9351 6.5922,-23.9728 13.7108,-43.4868 35.5614,-97.4806 39.3123,-97.1436 45.103,-133.978 27.166,-172.8001 l -6.0969,-13.1961 9.7272,-24.2412 c 40.7263,-101.4941 60.6613,-229.7687 54.9774,-353.7618 -1.9866,-43.3365 -3.3398,-55.8629 -10.9357,-101.2154 -39.3409,-234.89776 -116.2631,-369.84913 -276.3742,-484.86756 -59.3804,-42.65678 -112.4221,-69.03332 -175.663,-87.35399 -51.666,-14.96714 -98.8467,-22.2103 -155.2307,-23.83084 -120.4534,-3.46184 -230.1687,27.48279 -301.8479,85.13492 -13.6276,10.96092 -40.2085,39.45989 -40.2284,43.13101 0,0.86067 1.8194,1.0284 4.0534,0.37345 35.7769,-10.49232 82.8491,-20.13451 121.3994,-24.86676 27.2726,-3.34807 101.6167,-2.76796 129.0715,1.00715 93.398,12.84265 172.4402,44.79537 246.7094,99.73237 145.1653,107.37982 242.8078,289.21475 266.958,497.14415 3.8954,33.5385 5.3603,106.5583 2.7882,139.0001 -2.4738,31.2077 -4.053,45.4586 -4.9387,44.5727 -1.5889,-1.5887 -6.3985,-43.5729 -12.3441,-107.7546 -10.4457,-112.7593 -16.304,-154.5463 -25.5466,-182.229 -4.0272,-12.0619 -6.2687,-15.3656 -21.8126,-32.1513 -58.7281,-63.4197 -142.8203,-125.65481 -226.3266,-167.5 -86.2996,-43.24497 -180.1911,-71.58955 -266.1041,-80.33366 -28.8848,-2.94002 -96.4672,-2.46259 -125.1723,0.88436 -125.2441,14.60272 -204.3406,66.36577 -235.7283,154.2677 -2.6237,7.3481 -4.5408,13.9705 -4.2599,14.7161 0.2812,0.7458 5.7911,-1.9105 12.2447,-5.9026 19.7492,-12.2167 54.5036,-28.14883 79.7733,-36.56969 82.5783,-27.51852 173.9289,-27.41773 269.5321,0.29786 77.7374,22.53603 151.5276,61.32083 231.117,121.47693 103.9693,78.583 165.2279,150.4217 201.835,236.6944 8.359,19.6996 19.9837,54.4605 22.1573,66.255 l 1.2294,6.6719 -7.3914,-9.3069 c -8.8445,-11.1364 -28.3252,-26.5591 -62.9658,-49.8497 -32.4743,-21.8342 -51.3845,-29.2117 -57.9774,-22.6187 -8.3037,8.3037 7.5476,102.9834 23.1449,138.2437 1.9646,4.4412 3.572,8.3778 3.572,8.7481 0,0.3702 -5.8894,0.6752 -13.0877,0.6775 -33.4826,0.019 -88.1546,6.0937 -129.6051,14.4188 -39.4498,7.9235 -66.0362,16.6007 -96.4956,31.4939 -34.7497,16.9909 -66.4531,38.2841 -113.4984,76.2299 -80.5384,64.9611 -89.218,71.8154 -105.8329,83.5755 -21.3348,15.1006 -49.2614,31.561 -63.0574,37.1669 -29.9918,12.1867 -74.9316,15.5925 -143.6795,10.8887 -50.2585,-3.4387 -98.832,-3.8906 -118.1984,-1.0993 -31.5552,4.5478 -56.3744,11.9521 -118.2403,35.2752 -63.8131,24.0574 -89.8439,30.9537 -132.6819,35.1509 -40.0579,3.9248 -67.9848,7.4993 -100.1884,12.8237 -200.0219,33.0699 -335.3994,108.1933 -389.8616,216.3411 -3.6359,7.2196 -6.1455,13.592 -5.5769,14.1604 2.1202,2.1202 38.9849,9.4826 67.3398,13.4485 16.1315,2.2563 29.332,4.5912 29.3345,5.1887 0,1.3649 -25.5441,3.4016 -42.8528,3.4157 -22.2257,0.019 -67.1786,-5.4814 -88.2045,-10.7915 -21.2321,-5.3623 -39.9582,-13.77 -88.2697,-39.6317 -14.8929,-7.9722 -28.194,-14.5082 -29.5578,-14.524 -4.2885,-0.051 -1.7368,49.9635 3.3603,65.8607 9.9481,31.0266 27.5561,56.7249 56.2343,82.0714 50.5204,44.6511 84.7586,61.2867 152.693,74.1909 12.1373,2.3054 21.863,4.3964 21.6127,4.6465 -0.2501,0.2503 -7.6706,1.3516 -16.4897,2.4475 -35.8982,4.4609 -80.2028,-6.7691 -115.2623,-29.2154 -4.7537,-3.0436 -8.9684,-5.2087 -9.3658,-4.8116 -1.9182,1.9186 -10.3955,34.9458 -12.67,49.3637 -9.3932,59.541 -3.309,118.1226 22.969,221.1579 29.1415,114.2625 30.8608,125.4553 42.0261,273.6 6.2174,82.4916 12.4211,137.4559 35.0321,310.3809 22.1231,169.1942 31.0772,255.7453 36.2959,350.8413 2.0824,37.9456 0.2479,84.5497 -4.5587,115.8018 -1.4505,9.4321 -2.6519,17.8863 -2.6698,18.7866 -0.049,2.457 -53.8625,-0.1542 -91.0924,-4.4182 -89.473,-10.2495 -160.8223,-30.9991 -235.7531,-68.5608 -71.2976,-35.7402 -133.1368,-81.6648 -216.2646,-160.6079 -77.24186,-73.3532 -114.88602,-100.6932 -161.07309,-116.9834 -53.42533,-18.8429 -115.83077,-13.3118 -189.62153,16.8065 -51.27302,20.9277 -101.81982,50.1362 -215.52045,124.5382 -40.70717,26.6376 -74.38799,48.7388 -74.84625,49.114 -1.17544,0.962 22.40662,48.0093 42.50785,84.8054 199.24793,364.7291 498.03004,667.2296 862.72847,873.4655 75.9585,42.9543 171.9239,89.0539 256.3378,123.1392 242.9882,98.1154 502.7431,152.2575 763.5979,159.1609 27.8,0.7358 51.3578,1.4474 52.3507,1.5814 0.9928,0.1335 30.237,-0.5222 64.9872,-1.458 z M 1713.4129,3472.0092 c -0.6538,-38.0325 -2.7907,-105.5775 -4.7484,-150.1002 -1.9575,-44.5225 -4.6004,-115.1959 -5.8727,-157.052 -4.7808,-157.2627 -3.5472,-167.934 25.5962,-221.4201 24.3316,-44.6553 28.9235,-66.4387 18.4021,-87.2976 -3.797,-7.5271 -4.4737,-10.183 -2.5948,-10.183 1.3979,0 15.0081,3.218 30.2447,7.1509 17.9078,4.6222 32.7083,7.3351 41.8578,7.6721 l 14.1546,0.5212 -0.2668,-11.7338 c -0.6437,-28.3175 -13.0527,-55.8901 -49.5861,-110.1792 -14.3421,-21.3122 -29.8205,-46.0605 -34.3967,-54.9962 -21.9955,-42.9499 -34.7235,-94.0924 -37.0637,-148.9286 -1.1752,-27.5362 0.9098,-69.7914 3.1621,-64.0845 0.7838,1.9857 3.5236,22.7003 6.0888,46.0325 7.2385,65.8387 15.6804,100.7688 33.3753,138.0975 10.9421,23.0832 22,40.0123 55.9422,85.6458 48.8311,65.6506 58.4346,88.4984 58.4675,139.1011 0.032,49.7245 -9.8519,87.9794 -51.0737,197.6689 -12.6862,33.7572 -25.2618,68.649 -27.9455,77.5371 -11.9598,39.6085 -16.3681,82.6396 -14.803,144.502 1.3339,52.7251 -0.9124,90.1953 -8.7001,145.121 -3.5478,25.0223 -7.211,56.1328 -8.1402,69.1339 -0.9293,13.0012 -1.9131,23.8245 -2.1863,24.0516 -0.2736,0.2272 -9.0982,0.9701 -19.6106,1.6514 l -19.1137,1.2381 z m 152.8644,48.0022 c -2.4917,-20.3297 -1.852,-127.1185 0.8966,-149.6457 10.7764,-88.3246 34.3235,-156.5759 72.6305,-210.5212 24.6137,-34.6616 51.1271,-75.4286 63.8447,-98.1673 52.1572,-93.2562 92.1457,-203.2475 118.5155,-325.986 4.8934,-22.777 5.7081,-30.6483 6.5231,-63.0337 1.0472,-41.6024 -1.3388,-67.8027 -10.1181,-111.0991 -2.8097,-13.8561 -4.9289,-25.4165 -4.7093,-25.6896 0.2192,-0.273 3.3014,7.0867 6.8488,16.3547 19.4751,50.8806 27.5464,104.5436 23.3408,155.1841 -3.95,47.5631 -10.7676,77.6437 -36.5541,161.2854 -8.906,28.8872 -16.1926,53.5799 -16.1926,54.8723 0,1.8659 5.3457,2.1499 25.9505,1.3787 l 25.9502,-0.9714 3.8641,22.8197 c 2.1254,12.551 5.1262,32.1618 6.6687,43.5797 1.5425,11.4179 6.3253,40.2559 10.6285,64.0845 4.3031,23.8285 8.9176,51.0419 10.2544,60.474 4.0679,28.7032 2.7274,113.9916 -3.6036,229.2599 -3.0809,56.0965 -6.2332,115.3971 -7.0047,131.7793 l -1.4028,29.7857 -41.5195,4.837 c -83.8922,9.7735 -178.5901,18.3889 -226.8312,20.637 l -26.4545,1.2328 z m 425.3822,-26.4862 c -0.019,-0.2234 -1.6303,-15.8406 -3.5974,-34.7049 -5.5882,-53.5885 -8.1317,-151.0027 -5.6259,-215.4809 3.272,-84.1919 8.9055,-136.5979 22.7301,-211.4479 8.3975,-45.467 12.9397,-81.2374 15.6672,-123.38 l 2.1946,-33.9078 33.5175,-16.9392 c 37.202,-18.8013 61.4501,-33.4852 80.4526,-48.7196 l 12.6364,-10.1305 0.141,-59.9193 c 0.111,-47.2841 0.7814,-63.7261 3.1783,-77.9713 8.3474,-49.6111 24.0727,-86.5338 56.7163,-133.1675 7.4844,-10.6922 13.8962,-19.1523 14.2484,-18.8001 0.3522,0.3522 -4.6104,13.3868 -11.0279,28.9658 -28.5786,69.3764 -37.7979,107.0506 -40.0403,163.6187 -1.9882,50.153 2.625,82.7022 20.8741,147.2812 23.0933,81.7229 30.5736,121.2684 37.0179,195.706 6.0657,70.0643 11.5621,294.6277 8.3508,341.182 -0.9931,14.3964 -2.8034,41.4321 -4.0228,60.0792 -2.0826,31.8402 -2.4427,33.9484 -5.9175,34.6383 -2.035,0.4041 -26.8515,1.1713 -55.148,1.705 -46.776,0.8824 -82.4201,2.8684 -148.9286,8.2982 -12.9072,1.0536 -25.7015,2.2723 -28.4318,2.7084 -2.7304,0.4357 -4.9737,0.6096 -4.9848,0.3862 z"
       id="path390"
       sodipodi:nodetypes="ssssssssssssssssssssssssssssssscsssssssssssssssssscssscsscssssccsssssssssssssssssssscssssscssssssssssssscssscsssssssssssssscsssssssssssssssssssscsssssssssssssssscsssssssssssssscsssssscsscsssssscsscssssssssssssssss" />
  </g>
</svg>
