<?xml version="1.0" encoding="UTF-8" standalone="no"?>
<svg
   xml:space="preserve"
   id="Layer_1"
   width="71.412064"
   height="50"
   x="0"
   y="0"
   version="1.1"
   viewBox="0 0 71.412065 50"
   sodipodi:docname="YouTube_dark_icon_(2017).svg"
   inkscape:version="1.3 (0e150ed6c4, 2023-07-21)"
   xmlns:inkscape="http://www.inkscape.org/namespaces/inkscape"
   xmlns:sodipodi="http://sodipodi.sourceforge.net/DTD/sodipodi-0.dtd"
   xmlns="http://www.w3.org/2000/svg"
   xmlns:svg="http://www.w3.org/2000/svg"><defs
   id="defs1" /><sodipodi:namedview
   id="namedview1"
   pagecolor="#ffffff"
   bordercolor="#cccccc"
   borderopacity="1"
   inkscape:showpageshadow="0"
   inkscape:pageopacity="1"
   inkscape:pagecheckerboard="0"
   inkscape:deskcolor="#d1d1d1"
   inkscape:zoom="16.54"
   inkscape:cx="35.73156"
   inkscape:cy="25"
   inkscape:window-width="1920"
   inkscape:window-height="1009"
   inkscape:window-x="0"
   inkscape:window-y="0"
   inkscape:window-maximized="1"
   inkscape:current-layer="g5" />&#10;  <style
   id="style3"
   type="text/css">&#10;    .st2{fill:#282828}&#10;  </style>&#10;  <g
   id="g5"
   transform="scale(.58824)">&#10;    <path
   d="m 60.701468,0 c 0,0 -2.375151,7.8097032e-4 -6.086085,0.03984343 -1.855467,0.01953123 -4.047802,0.04902274 -6.441354,0.09296801 -2.393553,0.0439453 -4.988028,0.10117052 -7.6599,0.17929544 -2.671872,0.0781249 -5.421032,0.17675554 -8.111459,0.29882573 -2.690427,0.12207019 -5.323573,0.26913724 -7.772789,0.44491829 -1.224608,0.087891 -2.403904,0.1823953 -3.519503,0.2855446 -1.115599,0.1031493 -2.16687,0.2123998 -3.140991,0.3320286 -0.97412,0.1196288 -1.869339,0.2478242 -2.669509,0.3851532 -0.80017,0.1373289 -1.504672,0.2853482 -2.098421,0.441598 C 12.563958,2.6751751 11.937799,2.8952875 11.332136,3.1542716 10.726472,3.4132558 10.13879,3.7114914 9.5723844,4.0474286 9.0059787,4.3833657 8.46185,4.7538654 7.942124,5.1597243 7.4223979,5.5655833 6.926901,6.005808 6.4612764,6.4745576 5.9956519,6.9433071 5.5605052,7.4407571 5.1564041,7.965366 4.7523029,8.4899748 4.3792642,9.0421111 4.0441083,9.6155481 3.7089524,10.188985 3.4097402,10.786628 3.1509514,11.401862 2.8921626,12.017096 2.6751751,12.651066 2.5001753,13.301065 2.3439255,13.894815 2.1959062,14.527491 2.0585773,15.193628 1.9212483,15.859765 1.7930529,16.558163 1.6734241,17.282088 1.4341665,18.729938 1.231632,20.279319 1.0558509,21.870723 0.88006985,23.462128 0.7330028,25.096858 0.61093261,26.715021 0.48886242,28.333183 0.3902318,29.934906 0.31210688,31.46303 0.15585703,34.519276 0.07890589,37.277032 0.03984343,39.272342 7.8097032e-4,41.267653 0,42.49966 0,42.49966 c 0,0 7.8097032e-4,1.237476 0.03984343,3.240599 0.03906246,2.003123 0.1160136,4.773378 0.27226345,7.835875 0.0781249,1.531248 0.17675554,3.13551 0.29882573,4.754649 0.12207019,1.619139 0.26913724,3.251916 0.44491829,4.840977 0.1757811,1.589061 0.3783156,3.13434 0.6175732,4.575354 0.1196288,0.720507 0.2478242,1.413803 0.3851532,2.075179 0.1373289,0.661376 0.2853482,1.291782 0.441598,1.879282 0.1749998,0.649999 0.391206,1.280063 0.6474558,1.892563 0.2562497,0.612499 0.5519464,1.204283 0.883196,1.773033 0.3312497,0.568749 0.6990151,1.114831 1.0990147,1.63358 0.3999996,0.51875 0.832412,1.011708 1.2949115,1.474207 0.4624995,0.4625 0.9554575,0.894912 1.4742069,1.294912 0.5187495,0.399999 1.0648313,0.767765 1.6335807,1.099014 0.5687491,0.33125 1.1605331,0.626947 1.7730331,0.883196 0.612499,0.25625 1.245884,0.472456 1.895883,0.647456 0.599999,0.1625 1.310091,0.315377 2.115022,0.4582 0.804931,0.142822 1.701933,0.27734 2.679471,0.401754 0.977538,0.124414 2.03313,0.238035 3.150951,0.34531 1.117821,0.107275 2.300364,0.207419 3.526144,0.298826 2.45156,0.182812 5.086659,0.334566 7.776109,0.461519 2.689451,0.126953 5.432751,0.227537 8.101498,0.308787 2.668747,0.08125 5.260488,0.143553 7.649939,0.189256 2.389451,0.0457 4.576513,0.07598 6.428074,0.09629 3.703121,0.04062 6.072803,0.03984 6.072803,0.03984 0,0 2.37515,-7.81e-4 6.086084,-0.03984 1.855467,-0.01953 4.044482,-0.04902 6.438034,-0.09297 2.393552,-0.04395 4.991348,-0.101171 7.66322,-0.179296 2.671872,-0.07813 5.417711,-0.176755 8.108138,-0.298826 2.690427,-0.12207 5.323573,-0.265817 7.77279,-0.441598 1.224608,-0.08789 2.403903,-0.185715 3.519506,-0.288865 1.1156,-0.103149 2.16687,-0.212399 3.14099,-0.332028 0.97412,-0.119629 1.86934,-0.247824 2.66951,-0.385153 0.80017,-0.137329 1.50799,-0.285348 2.10174,-0.441598 0.65,-0.175 1.28006,-0.391206 1.89256,-0.647456 0.6125,-0.25625 1.2076,-0.551946 1.77635,-0.883196 0.56875,-0.33125 1.11152,-0.699015 1.63026,-1.099015 0.51875,-0.399999 1.01171,-0.832412 1.47421,-1.294911 0.4625,-0.4625 0.89491,-0.955458 1.29491,-1.474207 0.4,-0.51875 0.76777,-1.061511 1.09902,-1.630261 0.33125,-0.568749 0.62694,-1.163853 0.88319,-1.776353 0.25625,-0.612499 0.47246,-1.242563 0.64746,-1.892563 0.15625,-0.593749 0.30427,-1.229746 0.4416,-1.895883 0.13733,-0.666137 0.26552,-1.364535 0.38515,-2.08846 0.23926,-1.44785 0.44179,-2.99723 0.61757,-4.588635 0.17578,-1.591405 0.32285,-3.222814 0.44492,-4.840977 0.12207,-1.618162 0.2207,-3.223205 0.29883,-4.751329 0.15625,-3.056247 0.2332,-5.814002 0.27226,-7.809312 0.0391,-1.995311 0.0398,-3.227318 0.0398,-3.227318 0,0 0.008,-1.235914 -0.0232,-3.240599 -0.0156,-1.002343 -0.0432,-2.198997 -0.083,-3.526144 -0.0399,-1.327147 -0.0943,-2.785319 -0.16934,-4.319692 -0.075,-1.534374 -0.16777,-3.143909 -0.28886,-4.767931 -0.1211,-1.624022 -0.27012,-3.261486 -0.44824,-4.857578 -0.17813,-1.596092 -0.38808,-3.151332 -0.63418,-4.601916 -0.12304,-0.725293 -0.25302,-1.424911 -0.39511,-2.091781 -0.14209,-0.666869 -0.2957,-1.298813 -0.4582,-1.892563 -0.175,-0.649999 -0.39121,-1.283383 -0.64746,-1.895883 -0.25625,-0.612499 -0.55194,-1.204283 -0.88319,-1.7730325 -0.33125,-0.5687494 -0.69902,-1.1148312 -1.09902,-1.6335807 -0.4,-0.5187495 -0.83241,-1.0117074 -1.29491,-1.4742069 -0.4625,-0.4624996 -0.95546,-0.8949119 -1.47421,-1.2949115 -0.51874,-0.3999996 -1.06151,-0.767765 -1.63026,-1.0990147 -0.56875,-0.3312497 -1.16385,-0.6269463 -1.77635,-0.8831961 -0.6125,-0.2562497 -1.24256,-0.4724559 -1.89256,-0.6474557 -0.59375,-0.1624998 -1.30157,-0.3153773 -2.10174,-0.4581995 -0.80017,-0.1428221 -1.69539,-0.2740203 -2.66951,-0.3984343 -0.97412,-0.1244139 -2.02539,-0.2413547 -3.14099,-0.34863 C 99.173637,1.2872448 97.994342,1.1871005 96.769734,1.0956944 94.320517,0.91288204 91.687371,0.76112761 88.996944,0.63417461 86.306517,0.50722162 83.560678,0.40663794 80.888806,0.32538802 78.216934,0.2441381 75.619138,0.1818348 73.225586,0.13613172 70.832034,0.09042864 68.643019,0.06015591 66.787552,0.03984343 63.076618,-7.8152812e-4 60.701468,0 60.701468,0 Z M 48.599025,24.301173 80.201507,42.49966 48.599025,60.701468 Z"
   style="fill:#000000;fill-opacity:1"
   id="path1" />&#10;    &#10;  </g>&#10;</svg>
