<?xml version="1.0" encoding="UTF-8" standalone="no"?>
<svg
   height="48"
   viewBox="0 -960 960 960"
   width="48"
   version="1.1"
   id="svg1"
   sodipodi:docname="agro_tourism_icon.svg"
   inkscape:version="1.3 (0e150ed6c4, 2023-07-21)"
   xmlns:inkscape="http://www.inkscape.org/namespaces/inkscape"
   xmlns:sodipodi="http://sodipodi.sourceforge.net/DTD/sodipodi-0.dtd"
   xmlns="http://www.w3.org/2000/svg"
   xmlns:svg="http://www.w3.org/2000/svg">
  <defs
     id="defs1" />
  <sodipodi:namedview
     id="namedview1"
     pagecolor="#ffffff"
     bordercolor="#cccccc"
     borderopacity="1"
     inkscape:showpageshadow="0"
     inkscape:pageopacity="1"
     inkscape:pagecheckerboard="0"
     inkscape:deskcolor="#d1d1d1"
     inkscape:zoom="17.229167"
     inkscape:cx="24"
     inkscape:cy="24"
     inkscape:window-width="1920"
     inkscape:window-height="1009"
     inkscape:window-x="0"
     inkscape:window-y="0"
     inkscape:window-maximized="1"
     inkscape:current-layer="svg1" />
  <path
     d="M479.944-122.652q-15.77 0-26.531-10.921T442.652-160v-270.521h-20q-64-1.131-119.935-26.196t-99.935-70.631q-45.076-46.003-68.451-106.51Q110.956-694.365 110.956-760v-48.87q0-16.706 11.451-28.157 11.452-11.452 28.723-11.452h46.05q63.804 0 122.494 25.09 58.69 25.089 104.978 71.171 31.305 32.305 52.017 71.917 20.712 39.612 30.722 83.474 5.957-9.321 13.106-17.976 7.148-8.655 14.416-17.415 46.283-46.082 104.965-71.171 58.682-25.09 123.507-25.09h46.05q16.636 0 28.405 11.452 11.769 11.451 11.769 28.157V-640q0 65.635-24.862 126.142-24.863 60.507-69.964 106.51-45 45.566-101.278 70.131-56.278 24.565-117.592 25.696h-18V-160q0 15.506-11.1 26.427t-26.869 10.921Zm-36.292-384.696q0-54.217-19.152-104.456-19.152-50.239-53.766-86.158-32.918-34.223-80.63-53.891-47.713-19.668-103.321-20.799 1.13 59.609 18.783 109 17.652 49.391 50.956 84.13 39.739 42.174 85.13 56.609 45.391 14.434 102 15.565Zm74.261 120.565q53.783 0 102.239-18.935 48.457-18.934 82.891-54.587 32.739-33.956 50.891-83.347 18.153-49.391 19.848-109-57.173 1.131-104.671 20.795-47.497 19.664-80.459 53.379-40.722 42.97-54.883 89.031-14.16 46.062-15.856 102.664Zm0 0Zm-74.261-120.565Z"
     id="path1"
     style="fill:#f3f4f6;fill-opacity:1" />
</svg>
