<?xml version="1.0" encoding="UTF-8" standalone="no"?>
<svg
   height="48"
   viewBox="0 -960 960 960"
   width="48"
   version="1.1"
   id="svg1"
   sodipodi:docname="huest_house_icon.svg"
   inkscape:version="1.3 (0e150ed6c4, 2023-07-21)"
   xmlns:inkscape="http://www.inkscape.org/namespaces/inkscape"
   xmlns:sodipodi="http://sodipodi.sourceforge.net/DTD/sodipodi-0.dtd"
   xmlns="http://www.w3.org/2000/svg"
   xmlns:svg="http://www.w3.org/2000/svg">
  <defs
     id="defs1" />
  <sodipodi:namedview
     id="namedview1"
     pagecolor="#ffffff"
     bordercolor="#cccccc"
     borderopacity="1"
     inkscape:showpageshadow="0"
     inkscape:pageopacity="1"
     inkscape:pagecheckerboard="0"
     inkscape:deskcolor="#d1d1d1"
     inkscape:zoom="17.229167"
     inkscape:cx="24"
     inkscape:cy="24"
     inkscape:window-width="1920"
     inkscape:window-height="1009"
     inkscape:window-x="0"
     inkscape:window-y="0"
     inkscape:window-maximized="1"
     inkscape:current-layer="svg1" />
  <path
     d="M188.304-113.782q-16.956 0-28.283-11.327-11.326-11.326-11.326-28.282v-361.391l-50.956 39.217q-12.261 9.695-27.37 7.413-15.109-2.283-24.24-14.544Q37-494.391 39-509.218q2-14.826 14.261-24.522l95.435-72.434v-82.87q0-15.261 10.478-26.022 10.479-10.761 25.74-10.761t25.739 9.348q10.478 9.348 11.044 23.478v30.652l234.086-177.782q5.131-3.565 11.327-5.631 6.195-2.065 12.326-2.065 6.695 0 12.891 1.783 6.196 1.782 11.326 5.913L906.609-532.74q12.261 9.696 14.044 24.522 1.782 14.827-7.348 27.088-9.696 12.26-23.739 13.76-14.044 1.5-26.305-7.63l-52.521-39.782v361.391q0 16.956-11.327 28.282-11.326 11.327-28.283 11.327H188.304Zm33.392-72.436h219.825V-310q0-15.261 10.479-25.739 10.478-10.479 25.739-10.479 15.826 0 26.305 10.479 10.478 10.478 10.478 25.739v123.782h223.217v-384.173l-258.304-196.87-257.739 196.87v384.173Zm-31.218-589.609q-18.826 0-29.239-12.696-10.413-12.695-5.413-27.956 13.826-40.349 47.696-66.153 33.869-25.805 77.783-25.805 16.826 0 30.239-8.065t20.544-21.761q8.826-14.391 18.804-22.087 9.979-7.696 22.37-7.696 17.131 0 27.827 12.978 10.695 12.979 5.695 28.24-13.826 39.348-47.196 65.37-33.37 26.022-78.283 26.022-16.261 0-29.174 8.348t-21.609 22.043q-8.261 14.392-18.239 21.805-9.979 7.413-21.805 7.413Zm31.218 589.609h516.043H221.696Z"
     id="path1"
     style="fill:#f3f4f6;fill-opacity:1" />
</svg>
