<?xml version="1.0" encoding="UTF-8" standalone="no"?>
<svg
   height="48"
   viewBox="0 -960 960 960"
   width="48"
   version="1.1"
   id="svg1"
   sodipodi:docname="hotel_icon (copy).svg"
   inkscape:version="1.3 (0e150ed6c4, 2023-07-21)"
   xmlns:inkscape="http://www.inkscape.org/namespaces/inkscape"
   xmlns:sodipodi="http://sodipodi.sourceforge.net/DTD/sodipodi-0.dtd"
   xmlns="http://www.w3.org/2000/svg"
   xmlns:svg="http://www.w3.org/2000/svg">
  <defs
     id="defs1" />
  <sodipodi:namedview
     id="namedview1"
     pagecolor="#ffffff"
     bordercolor="#cccccc"
     borderopacity="1"
     inkscape:showpageshadow="0"
     inkscape:pageopacity="1"
     inkscape:pagecheckerboard="0"
     inkscape:deskcolor="#d1d1d1"
     inkscape:zoom="12.182861"
     inkscape:cx="6.853891"
     inkscape:cy="20.15126"
     inkscape:window-width="1920"
     inkscape:window-height="1009"
     inkscape:window-x="0"
     inkscape:window-y="0"
     inkscape:window-maximized="1"
     inkscape:current-layer="svg1" />
  <g
     id="g1"
     transform="matrix(1.3864533,0,0,1.3864533,-163.45038,140.28767)">
    <path
       d="m 244.55207,-143.09609 q -8.25156,0 -13.77721,-5.5905 -5.52406,-5.5905 -5.52406,-13.80357 v -285.15388 q 0,-8.32485 5.61739,-13.71024 5.61739,-5.38593 13.86947,-5.38593 8.25156,0 13.62747,5.38593 5.37538,5.38539 5.37538,13.71024 v 193.7092 h 189.39993 v -126.2204 q 0,-17.22177 12.20387,-29.49524 12.2044,-12.27295 29.86221,-12.27295 h 124.43195 q 34.36392,0 58.83547,24.47102 24.47154,24.47155 24.47154,58.83547 v 176.42521 q 0,8.32432 -5.41281,13.71024 -5.41229,5.3854 -13.77563,5.3854 -8.25208,0 -13.7772,-5.5905 -5.52459,-5.5905 -5.52459,-13.80357 v -49.6765 H 263.74051 v 49.97493 q 0,8.32432 -5.41229,13.71024 -5.41229,5.3854 -13.77615,5.3854 z m 110.75017,-139.63169 q -25.21655,0 -42.41091,-17.12423 -17.19435,-17.12422 -17.19435,-42.34078 0,-25.21709 17.12423,-42.1921 17.12423,-16.97554 42.34078,-16.97554 25.21709,0 42.1921,16.90541 16.97554,16.90489 16.97554,42.12198 0,25.21656 -16.90541,42.41091 -16.90489,17.19435 -42.12198,17.19435 z m 136.62633,28.79294 h 172.52668 v -84.57981 q 0,-18.58895 -13.16506,-31.75401 -13.16506,-13.16506 -31.65172,-13.16506 H 491.92857 Z M 355.16199,-317.939 q 10.01787,0 17.13583,-7.11796 7.11796,-7.11796 7.11796,-17.13583 0,-10.01787 -7.11796,-17.13583 -7.11796,-7.11796 -17.13583,-7.11796 -10.01787,0 -17.13583,7.11796 -7.11796,7.11796 -7.11796,17.13583 0,10.01787 7.11796,17.13583 7.11796,7.11796 17.13583,7.11796 z m 0,-24.25379 z m 136.76658,-41.24093 v 129.49888 z"
       id="path1"
       style="fill:#f3f4f6;fill-opacity:1;stroke-width:0.527256" />
    <path
       d="m 244.55207,-428.04317 c -5.50104,0 -10.09344,-1.8635 -13.77721,-5.5905 -3.68271,-3.727 -5.52406,-8.32819 -5.52406,-13.80357 v -285.15388 c 0,-5.5499 1.87246,-10.11998 5.61739,-13.71024 3.74493,-3.59062 8.36808,-5.38593 13.86947,-5.38593 5.50104,0 10.04353,1.79531 13.62747,5.38593 3.58359,3.59026 5.37538,8.16034 5.37538,13.71024 v 193.7092 h 189.39993 v -126.2204 c 0,-11.48118 4.06796,-21.31293 12.20387,-29.49524 8.13627,-8.18197 18.09034,-12.27295 29.86221,-12.27295 h 124.43195 c 22.90928,0 42.5211,8.15701 58.83547,24.47102 16.31436,16.31437 24.47154,35.92619 24.47154,58.83547 v 296.42521 c 0,5.54955 -1.80427,10.11963 -5.41281,13.71024 -3.60819,3.59027 -8.20007,5.3854 -13.77563,5.3854 -5.50139,0 -10.09379,-1.8635 -13.7772,-5.5905 -3.68306,-3.727 -5.52459,-8.32819 -5.52459,-13.80357 v -169.6765 H 263.74051 v 49.97493 c 0,5.54955 -1.8041,10.11963 -5.41229,13.71024 -3.60819,3.59027 -8.20024,5.3854 -13.77615,5.3854 z m 110.75017,-139.63169 c -16.81103,0 -30.948,-5.70808 -42.41091,-17.12423 -11.4629,-11.41615 -17.19435,-25.52974 -17.19435,-42.34078 0,-16.81139 5.70808,-30.87543 17.12423,-42.1921 11.41615,-11.31703 25.52975,-16.97554 42.34078,-16.97554 16.81139,0 30.87543,5.63514 42.1921,16.90541 11.31703,11.26993 16.97554,25.31059 16.97554,42.12198 0,16.81104 -5.63514,30.94801 -16.90541,42.41091 -11.26993,11.4629 -25.31059,17.19435 -42.12198,17.19435 z m 136.62633,28.79294 h 172.52668 v -84.57981 c 0,-12.39263 -4.38835,-22.9773 -13.16506,-31.75401 -8.77671,-8.77671 -19.32728,-13.16506 -31.65172,-13.16506 h -127.7099 z m -136.76658,-64.00416 c 6.67858,0 12.39052,-2.37265 17.13583,-7.11796 4.74531,-4.74531 7.11796,-10.45725 7.11796,-17.13583 0,-6.67858 -2.37265,-12.39052 -7.11796,-17.13583 -4.74531,-4.74531 -10.45725,-7.11796 -17.13583,-7.11796 -6.67858,0 -12.39052,2.37265 -17.13583,7.11796 -4.74531,4.74531 -7.11796,10.45725 -7.11796,17.13583 0,6.67858 2.37265,12.39052 7.11796,17.13583 4.74531,4.74531 10.45725,7.11796 17.13583,7.11796 z m 136.76658,-65.49472 v 129.49888 z"
       id="path1-5"
       style="fill:#f3f4f6;fill-opacity:1;stroke-width:0.527256"
       sodipodi:nodetypes="scsscsssccscsscsssscsccscsssscscscsccsssccsssssssssccc" />
  </g>
</svg>
