<?xml version="1.0" encoding="UTF-8" standalone="no"?>
<svg
   height="48"
   viewBox="0 -960 960 960"
   width="48"
   version="1.1"
   id="svg1"
   sodipodi:docname="biking_icon.svg"
   inkscape:version="1.3 (0e150ed6c4, 2023-07-21)"
   xmlns:inkscape="http://www.inkscape.org/namespaces/inkscape"
   xmlns:sodipodi="http://sodipodi.sourceforge.net/DTD/sodipodi-0.dtd"
   xmlns="http://www.w3.org/2000/svg"
   xmlns:svg="http://www.w3.org/2000/svg">
  <defs
     id="defs1" />
  <sodipodi:namedview
     id="namedview1"
     pagecolor="#ffffff"
     bordercolor="#cccccc"
     borderopacity="1"
     inkscape:showpageshadow="0"
     inkscape:pageopacity="1"
     inkscape:pagecheckerboard="0"
     inkscape:deskcolor="#d1d1d1"
     inkscape:zoom="17.229167"
     inkscape:cx="24"
     inkscape:cy="24"
     inkscape:window-width="1920"
     inkscape:window-height="1009"
     inkscape:window-x="0"
     inkscape:window-y="0"
     inkscape:window-maximized="1"
     inkscape:current-layer="svg1" />
  <path
     d="M618.68-752.87q-31.046 0-52.711-21.703-21.665-21.702-21.665-52.582t21.586-52.428q21.585-21.547 52.63-21.547t52.828 21.467q21.782 21.468 21.782 52.348t-21.703 52.663q-21.702 21.782-52.747 21.782Zm-137.855 548q-13.15 0-22.335-9.31-9.186-9.31-9.186-22.385v-168.637L314.435-524.435q-8.435-6.869-15.283-20.935-6.848-14.065-6.848-28.63 0-12.87 6.783-26.717 6.783-13.848 15.348-22.413l119-119q7.435-7.435 21.369-14.218 13.935-6.782 30.596-6.782t31.63 5.934q14.97 5.935 24.1 15.066l78.327 78.326q22.108 22.108 52.826 39.603 30.717 17.494 68.152 22.985 11.565 1.955 19.63 10.856 8.065 8.902 8.065 19.884 0 15.041-10.347 24.824-10.348 9.782-24.348 7.217-48.565-6-88-27t-73-54l-39.718-38.304L423.696-548l67.347 71.782q10.261 10.999 15.957 25.087 5.696 14.088 5.696 29.479v184.838q0 13.564-9.361 22.754-9.361 9.19-22.51 9.19ZM202.679-82.826q-81.157 0-136.592-55.523-55.434-55.522-55.434-136.679 0-81.157 55.522-136.934t136.679-55.777q81.158 0 136.934 55.865 55.777 55.864 55.777 137.021 0 81.157-55.864 136.592-55.865 55.435-137.022 55.435Zm.43-58.609q57.195 0 95.521-38.326T336.956-275q0-56.913-38.253-95.239-38.253-38.326-95.877-38.326-56.913 0-95.238 38.326Q69.262-331.913 69.262-275q0 56.913 38.326 95.239 38.325 38.326 95.521 38.326Zm554.037 58.609q-81.157 0-136.934-55.523-55.777-55.522-55.777-136.679 0-81.157 55.864-136.934 55.865-55.777 137.022-55.777 81.157 0 136.592 55.865 55.435 55.864 55.435 137.021 0 81.157-55.523 136.592-55.522 55.435-136.679 55.435Zm.028-58.609q56.913 0 95.238-38.326 38.326-38.326 38.326-95.239 0-56.913-38.326-95.239-38.325-38.326-95.521-38.326-57.195 0-95.239 38.326-38.043 38.326-38.043 95.239 0 56.913 38.086 95.239 38.086 38.326 95.479 38.326Z"
     id="path1"
     style="fill:#f3f4f6;fill-opacity:1" />
</svg>
