<?xml version="1.0" encoding="UTF-8" standalone="no"?>
<svg
   height="48"
   viewBox="0 -960 960 960"
   width="48"
   version="1.1"
   id="svg1"
   sodipodi:docname="distance_icon.svg"
   inkscape:version="1.3 (0e150ed6c4, 2023-07-21)"
   xmlns:inkscape="http://www.inkscape.org/namespaces/inkscape"
   xmlns:sodipodi="http://sodipodi.sourceforge.net/DTD/sodipodi-0.dtd"
   xmlns="http://www.w3.org/2000/svg"
   xmlns:svg="http://www.w3.org/2000/svg">
  <defs
     id="defs1" />
  <sodipodi:namedview
     id="namedview1"
     pagecolor="#ffffff"
     bordercolor="#cccccc"
     borderopacity="1"
     inkscape:showpageshadow="0"
     inkscape:pageopacity="1"
     inkscape:pagecheckerboard="0"
     inkscape:deskcolor="#d1d1d1"
     inkscape:zoom="17.229167"
     inkscape:cx="24"
     inkscape:cy="24"
     inkscape:window-width="1920"
     inkscape:window-height="1009"
     inkscape:window-x="0"
     inkscape:window-y="0"
     inkscape:window-maximized="1"
     inkscape:current-layer="svg1" />
  <path
     d="m257.61-439.391 58.086 58.521q11.392 11.392 11.392 27.849 0 16.456-11.392 27.848-11.826 11.826-28.283 11.826-16.456 0-27.283-11.826L133.652-451.217q-6.131-6.131-8.979-13.609-2.847-7.478-2.847-15.174 0-7.261 2.847-14.457 2.848-7.195 8.979-13.326L259.13-633.262q11.827-12.391 28.283-12.108 16.457.282 28.283 12.674 11.827 11.261 11.827 27.717 0 16.457-11.827 27.718l-57.521 57.652H702.39l-59.652-59.652q-10.826-10.826-10.543-27.283.282-16.457 12.109-28.283 10.826-10.826 27.283-10.826 16.456 0 28.283 10.826l126.043 127.044q5.566 6.131 8.414 13.326 2.847 7.196 2.847 14.457 0 7.696-2.847 15.174-2.848 7.478-8.414 13.609L699.435-324.738q-11.392 10.826-27.566 10.826t-28-11.826q-11.392-10.827-11.674-27.283-.283-16.457 11.109-27.849l59.086-59.521-444.78 1Z"
     id="path1"
     style="fill:#f3f4f6;fill-opacity:1" />
</svg>
