<?xml version="1.0" encoding="UTF-8" standalone="no"?>
<svg
   height="48"
   viewBox="0 -960 960 960"
   width="48"
   version="1.1"
   id="svg1"
   sodipodi:docname="kayaking_FILL0_wght600_GRAD0_opsz48.svg"
   inkscape:version="1.3 (0e150ed6c4, 2023-07-21)"
   xmlns:inkscape="http://www.inkscape.org/namespaces/inkscape"
   xmlns:sodipodi="http://sodipodi.sourceforge.net/DTD/sodipodi-0.dtd"
   xmlns="http://www.w3.org/2000/svg"
   xmlns:svg="http://www.w3.org/2000/svg">
  <defs
     id="defs1" />
  <sodipodi:namedview
     id="namedview1"
     pagecolor="#ffffff"
     bordercolor="#cccccc"
     borderopacity="1"
     inkscape:showpageshadow="0"
     inkscape:pageopacity="1"
     inkscape:pagecheckerboard="0"
     inkscape:deskcolor="#d1d1d1"
     inkscape:zoom="17.229167"
     inkscape:cx="24"
     inkscape:cy="24"
     inkscape:window-width="1920"
     inkscape:window-height="1009"
     inkscape:window-x="0"
     inkscape:window-y="0"
     inkscape:window-maximized="1"
     inkscape:current-layer="svg1" />
  <path
     d="M120-27h-10q-15.43 0-25.824-10.478-10.394-10.478-10.394-26.027 0-15.548 10.394-26.022Q94.569-100 110-100h10q24.312 0 47.895-7 23.583-7 47.583-24.435 9.44-7.565 24.394-7.565 14.954 0 24.65 7.565 24 17.435 47.581 24.435 23.582 7 47.892 7 23.309 0 47.679-7.217 24.369-7.218 48.369-24.218Q466.174-138 480.5-138t24.022 6.565q24 17.435 47.583 24.152 23.583 6.718 47.895 6.718 23.312 0 47.677-6.935 24.366-6.935 47.801-23.935Q705.174-138 719.647-138t24.875 6.565q23.435 17 47.896 24.218Q816.879-100 840-100h10q15.431 0 25.824 10.473 10.394 10.474 10.394 26.022 0 15.549-10.394 26.027Q865.431-26.999 850-26.999h-10q-29 0-59.592-8.5T720-66.434Q690.184-44 659.592-35.5 629-27 600-27t-59.592-8.5Q509.816-44 480-66.434 450.184-44 419.592-35.5 389-27 360-27t-59.592-8.5Q269.816-44 240-66.434 210.184-44 179.592-35.5 149-27 120-27ZM480-607q-32.826 0-56.022-23.545-23.196-23.546-23.196-56.238 0-32.458 23.196-55.838 23.196-23.379 56.022-23.379 32.826 0 56.022 23.455 23.196 23.456 23.196 56.023 0 32.566-23.196 56.044-23.196 23.478-56.022 23.478ZM360.125-196.565q-23.56 0-46.129-8.401t-42.735-24.208Q256.13-239.609 239-240.109q-17.13-.5-30.696 9.5-8.434 6.435-16.381 11.805-7.947 5.369-15.097 10.369Q160-212 141.109-216.63q-18.892-4.631-38.849-11.327-47.783-13.826-47.783-38.826t47.783-38.261q47.261-13.13 95.957-23.978 48.696-10.848 90.261-18.413l54.304-175.044q8.785-30.362 37.219-42.724 28.434-12.363 56.825 1.768L540-509.131l115.913-61.174 67.739-157.478-14.304-36.847q-3.131-7.892-2.631-16.153t3.733-15.077l29.202-62.358q6.13-14.956 21.587-20.587 15.457-5.63 30.413.5l48.783 22.739q14.956 6.696 20.87 21.587 5.913 14.892-.783 29.849l-28.253 62.862q-3.182 6.877-9.312 12.29-6.131 5.413-12.827 7.978l-37.608 14.87-150.913 352.19q55.87 7.635 117.935 20.983 62.065 13.348 118.196 27.913 45.783 13.261 45.783 38.544 0 25.282-45.783 39.109-19.957 6.13-39.131 10.761-19.174 4.63-35.435 8.195-8.473-5-16.041-10.652-7.568-5.652-15.437-11.522-13.566-10-30.696-9.5-17.13.5-32.261 10.935-20.093 15.807-42.573 24.208-22.481 8.401-46.041 8.401-23.56 0-46.212-8.37-22.652-8.369-42.46-24.035-14.026-10.639-31.587-10.639-17.562 0-31.127 10.435-20.093 15.807-42.573 24.208-22.481 8.401-46.041 8.401Zm204.918-163.436 43.522-104.781L540-429.565l-72.043-34.609-30.913 101.173h47.896q19.19 0 38.147.5 18.956.5 41.956 2.5Z"
     id="path1"
     style="fill:#f3f4f6;fill-opacity:1" />
</svg>
