<svg width="84" height="82" viewBox="0 0 84 82" fill="none" xmlns="http://www.w3.org/2000/svg">
<path fill-rule="evenodd" clip-rule="evenodd" d="M68.1835 0C76.8753 0 83.9352 7.05453 83.9352 15.7437L83.9352 66.2562C83.9352 74.9431 76.8754 82 68.1836 82H15.8164L15.7366 81.9998H0.0676877L0.0676725 66.5593C0.0657631 66.4585 0.0648041 66.3575 0.0648041 66.2562V15.7437C0.0648041 7.05453 7.12464 0 15.8164 0H68.1835ZM38.1821 54.2764L31.427 54.2697V46.1949C31.427 44.4695 32.0964 43.5716 33.5733 43.3664H38.1821C41.4689 43.3664 43.595 45.4381 43.595 48.7911C43.595 52.235 41.5227 54.2731 38.1821 54.2764ZM31.427 32.4968V30.3714C31.427 28.5116 32.2142 27.627 33.94 27.5127H37.3983C40.3621 27.5127 42.1383 29.2851 42.1383 32.2547C42.1383 34.5147 40.9205 37.1548 37.5059 37.1548H31.427V32.4968ZM46.8077 40.5549L45.5866 39.8688L46.653 38.9574C47.8943 37.8913 49.9734 35.4934 49.9734 31.3567C49.9734 25.0206 45.0584 20.9344 37.4521 20.9344H28.7726V20.9311H27.7836C25.5296 21.0151 23.7231 22.8481 23.6996 25.1148V61.0666H37.6237C46.0777 61.0666 51.5343 56.4658 51.5343 49.3393C51.5343 45.502 49.7715 42.223 46.8077 40.5549ZM60.1064 51.1319C57.3764 51.1319 55.1607 53.3538 55.1607 56.1002C55.1607 58.8431 57.3764 61.0685 60.1063 61.0685C62.8432 61.0685 65.0693 58.8431 65.0693 56.1002C65.0693 53.3538 62.8432 51.1319 60.1064 51.1319Z" fill="#312E81"/>
</svg>
