<svg width="138" height="82" viewBox="0 0 138 82" fill="none" xmlns="http://www.w3.org/2000/svg">
<path d="M93.4843 0H75.1477C73.44 0 71.7963 0.640393 70.5369 1.7931L49.5534 21.0049C49.532 21.0262 49.5107 21.0689 49.4893 21.0903C45.9458 24.4203 46.0099 29.7356 49.0411 33.0443C51.752 36.0114 57.4515 36.8012 61.0164 33.6206C61.0377 33.5993 61.0804 33.5993 61.1018 33.5779L78.1576 17.9523C79.5451 16.6929 81.7224 16.7783 82.9819 18.1658C84.2626 19.5533 84.1559 21.7093 82.7684 22.9901L77.197 28.0919L108.277 53.3234C108.896 53.8357 109.451 54.3907 109.964 54.967V13.6617L98.3086 2.00656C97.0492 0.725779 95.2988 0 93.4843 0ZM116.816 13.7044V61.4991C116.816 65.2774 119.868 68.3299 123.647 68.3299H137.309V13.7044H116.816ZM127.062 61.4991C125.184 61.4991 123.647 59.9621 123.647 58.0836C123.647 56.2051 125.184 54.6682 127.062 54.6682C128.941 54.6682 130.478 56.2051 130.478 58.0836C130.478 59.9621 128.941 61.4991 127.062 61.4991ZM0.691406 68.3086H14.3531C18.1314 68.3086 21.184 65.256 21.184 61.4777V13.7044H0.691406V68.3086ZM10.9377 54.6682C12.8162 54.6682 14.3531 56.2051 14.3531 58.0836C14.3531 59.9621 12.8162 61.4991 10.9377 61.4991C9.0592 61.4991 7.52226 59.9621 7.52226 58.0836C7.52226 56.1838 9.0592 54.6682 10.9377 54.6682ZM103.987 58.6386L72.1165 32.7668L65.7126 38.637C59.3727 44.4219 49.6601 43.8669 44.0033 37.6978C38.2611 31.4219 38.7094 21.7093 44.9425 15.9885L62.4039 0H44.5156C42.7012 0 40.9721 0.725779 39.6913 2.00656L28.0148 13.6617V61.4564H31.9212L51.2397 78.9391C57.0887 83.6993 65.6913 82.8028 70.4515 76.9539L70.4942 76.9112L74.3152 80.2199C77.7093 82.9949 82.7257 82.4612 85.4794 79.0672L92.1822 70.8274L93.3349 71.7667C96.2593 74.1361 100.571 73.7092 102.941 70.7634L104.969 68.2659C107.359 65.3201 106.911 61.0294 103.987 58.6386Z" fill="#312E81"/>
</svg>
