<svg width="35" height="32" viewBox="0 0 35 32" fill="none" xmlns="http://www.w3.org/2000/svg">
<path d="M34.0278 3.88889C34.5649 3.88889 35 3.45382 35 2.91667V0.972222C35 0.435069 34.5649 0 34.0278 0H0.972222C0.435069 0 0 0.435069 0 0.972222V2.91667C0 3.45382 0.435069 3.88889 0.972222 3.88889H1.94323V27.2222H0.972222C0.435069 27.2222 0 27.6573 0 28.1944V30.1389C0 30.676 0.435069 31.1111 0.972222 31.1111H15.5556V26.25C15.5556 25.7153 15.9931 25.2778 16.5278 25.2778H18.4722C19.0069 25.2778 19.4444 25.7153 19.4444 26.25V31.1111H34.0278C34.5649 31.1111 35 30.676 35 30.1389V28.1944C35 27.6573 34.5649 27.2222 34.0278 27.2222H33.0556V3.88889H34.0278ZM15.5556 6.61111C15.5556 6.22222 15.9444 5.83333 16.3333 5.83333H18.6667C19.0556 5.83333 19.4444 6.22222 19.4444 6.61111V8.94444C19.4444 9.33333 19.0556 9.72222 18.6667 9.72222H16.3333C15.9444 9.72222 15.5556 9.33333 15.5556 8.94444V6.61111ZM15.5556 12.4444C15.5556 12.0556 15.9444 11.6667 16.3333 11.6667H18.6667C19.0556 11.6667 19.4444 12.0556 19.4444 12.4444V14.7778C19.4444 15.1667 19.0556 15.5556 18.6667 15.5556H16.3333C15.9444 15.5556 15.5556 15.1667 15.5556 14.7778V12.4444ZM7.77778 6.61111C7.77778 6.22222 8.16667 5.83333 8.55556 5.83333H10.8889C11.2778 5.83333 11.6667 6.22222 11.6667 6.61111V8.94444C11.6667 9.33333 11.2778 9.72222 10.8889 9.72222H8.55556C8.16667 9.72222 7.77778 9.33333 7.77778 8.94444V6.61111ZM10.8889 15.5556H8.55556C8.16667 15.5556 7.77778 15.1667 7.77778 14.7778V12.4444C7.77778 12.0556 8.16667 11.6667 8.55556 11.6667H10.8889C11.2778 11.6667 11.6667 12.0556 11.6667 12.4444V14.7778C11.6667 15.1667 11.2778 15.5556 10.8889 15.5556ZM11.6667 23.3333C11.6667 20.1116 14.2783 17.5 17.5 17.5C20.7217 17.5 23.3333 20.1116 23.3333 23.3333H11.6667ZM27.2222 14.7778C27.2222 15.1667 26.8333 15.5556 26.4444 15.5556H24.1111C23.7222 15.5556 23.3333 15.1667 23.3333 14.7778V12.4444C23.3333 12.0556 23.7222 11.6667 24.1111 11.6667H26.4444C26.8333 11.6667 27.2222 12.0556 27.2222 12.4444V14.7778ZM27.2222 8.94444C27.2222 9.33333 26.8333 9.72222 26.4444 9.72222H24.1111C23.7222 9.72222 23.3333 9.33333 23.3333 8.94444V6.61111C23.3333 6.22222 23.7222 5.83333 24.1111 5.83333H26.4444C26.8333 5.83333 27.2222 6.22222 27.2222 6.61111V8.94444Z" fill="#312E81"/>
</svg>
