<svg width="82" height="82" viewBox="0 0 82 82" fill="none" xmlns="http://www.w3.org/2000/svg">
<path d="M41 0C18.3763 0 0.0332336 18.3496 0.0332336 40.9668C0.0332336 63.5971 18.3763 81.9335 41 81.9335C63.6237 81.9335 81.9668 63.5971 81.9668 40.9668C81.9668 18.3496 63.6237 0 41 0ZM41 18.1707C44.8317 18.1707 47.9379 21.277 47.9379 25.1087C47.9379 28.9404 44.8317 32.0466 41 32.0466C37.1683 32.0466 34.0621 28.9404 34.0621 25.1087C34.0621 21.277 37.1683 18.1707 41 18.1707ZM50.2506 60.1286C50.2506 61.2233 49.363 62.1109 48.2683 62.1109H33.7317C32.637 62.1109 31.7494 61.2233 31.7494 60.1286V56.1641C31.7494 55.0694 32.637 54.1819 33.7317 54.1819H35.714V43.6098H33.7317C32.637 43.6098 31.7494 42.7222 31.7494 41.6275V37.663C31.7494 36.5683 32.637 35.6807 33.7317 35.6807H44.3038C45.3985 35.6807 46.286 36.5683 46.286 37.663V54.1819H48.2683C49.363 54.1819 50.2506 55.0694 50.2506 56.1641V60.1286Z" fill="#312E81"/>
</svg>
