<?xml version="1.0" encoding="UTF-8" standalone="no"?>
<svg
   height="48"
   viewBox="0 -960 960 960"
   width="48"
   version="1.1"
   id="svg1"
   sodipodi:docname="camping.svg"
   inkscape:version="1.3 (0e150ed6c4, 2023-07-21)"
   xmlns:inkscape="http://www.inkscape.org/namespaces/inkscape"
   xmlns:sodipodi="http://sodipodi.sourceforge.net/DTD/sodipodi-0.dtd"
   xmlns="http://www.w3.org/2000/svg"
   xmlns:svg="http://www.w3.org/2000/svg">
  <defs
     id="defs1" />
  <sodipodi:namedview
     id="namedview1"
     pagecolor="#ffffff"
     bordercolor="#cccccc"
     borderopacity="1"
     inkscape:showpageshadow="0"
     inkscape:pageopacity="1"
     inkscape:pagecheckerboard="0"
     inkscape:deskcolor="#d1d1d1"
     inkscape:zoom="17.229167"
     inkscape:cx="24"
     inkscape:cy="24"
     inkscape:window-width="1920"
     inkscape:window-height="1009"
     inkscape:window-x="0"
     inkscape:window-y="0"
     inkscape:window-maximized="1"
     inkscape:current-layer="svg1" />
  <path
     d="M74.347-110v-125.652q0-13.391 4.131-25.218 4.13-11.826 11.826-22.652l340.261-460.869-45.044-61.478q-5.13-6.13-6.695-13.609-1.566-7.478-.5-14.674 1.065-7.196 5.195-14.174 4.131-6.978 10.827-12.109 12.826-10.261 28.782-7.413 15.957 2.848 26.783 15.674L480-810.783l30.652-40.826q10.261-12.826 26.218-15.674 15.956-2.847 29.348 7.413 12.826 10.261 15.391 26.501 2.565 16.239-7.696 29.065l-43.478 59.913 339.261 460.869q7.695 10.826 11.826 22.652 4.13 11.827 4.13 25.218V-110q0 16.957-11.326 28.283t-28.283 11.326H114.522Q97-70.39 85.674-81.717 74.347-93.043 74.347-110ZM480-676.999 154.131-235.652v86.043h125.782l168.739-235.609q11.826-16.956 31.348-16.956t31.913 16.956l168.174 235.609h125.782v-86.043L480-676.999Zm-101.782 527.39h203.564L480-293.608 378.218-149.609Zm134.695-235.609 167.174 235.609-168.174-235.609Q499.522-402.174 480-402.174t-31.348 16.956L279.913-149.609l168.739-235.609q11.826-16.956 31.848-16.956t32.413 16.956Z"
     id="path1"
     style="fill:#f3f4f6;fill-opacity:1" />
</svg>
