<?xml version="1.0" encoding="UTF-8" standalone="no"?>
<svg
   height="48"
   viewBox="0 -960 960 960"
   width="48"
   version="1.1"
   id="svg1"
   sodipodi:docname="phone_icon.svg"
   inkscape:version="1.3 (0e150ed6c4, 2023-07-21)"
   xmlns:inkscape="http://www.inkscape.org/namespaces/inkscape"
   xmlns:sodipodi="http://sodipodi.sourceforge.net/DTD/sodipodi-0.dtd"
   xmlns="http://www.w3.org/2000/svg"
   xmlns:svg="http://www.w3.org/2000/svg">
  <defs
     id="defs1" />
  <sodipodi:namedview
     id="namedview1"
     pagecolor="#ffffff"
     bordercolor="#cccccc"
     borderopacity="1"
     inkscape:showpageshadow="0"
     inkscape:pageopacity="1"
     inkscape:pagecheckerboard="0"
     inkscape:deskcolor="#d1d1d1"
     inkscape:zoom="17.229167"
     inkscape:cx="24"
     inkscape:cy="24"
     inkscape:window-width="1920"
     inkscape:window-height="1009"
     inkscape:window-x="0"
     inkscape:window-y="0"
     inkscape:window-maximized="1"
     inkscape:current-layer="svg1" />
  <path
     d="M796.13-105.869q-119.446 0-242.462-57.13-123.016-57.131-227.995-162.109Q220.695-430.087 163.282-553.39q-57.413-123.303-57.413-242.175 0-25.019 16.894-42.075 16.895-17.056 41.672-17.056h140q23.609 0 38.979 13.674 15.37 13.674 21.065 37.718l26.929 116.597q3.202 21.142-.994 37.446-4.196 16.305-16.946 27.923l-102.033 97.382q23.739 39.478 50.478 74.086 26.739 34.609 60.044 66.348 34.739 36.304 71.499 64.695 36.761 28.392 76.109 49l97.826-99.696q13.957-14.956 31.63-20.087 17.673-5.13 36.588-.869l107.695 24.304q24.044 6.826 37.718 23.392 13.674 16.566 13.674 39.957v138.391q0 25.1-17.096 41.833-17.097 16.733-41.47 16.733ZM231.826-594.783l80.435-78.043-22.435-102.087H186.218q1.434 38.609 11.78 82.249 10.345 43.641 33.828 97.881Zm370.696 365.261q38.174 17.87 83.63 29.304 45.457 11.435 88.761 14v-104.638l-94.522-19.97-77.869 81.304ZM231.826-594.783Zm370.696 365.261Z"
     style="fill:#d1d5db;fill-opacity:1"
     id="path1" />
</svg>
