<?xml version="1.0" encoding="UTF-8" standalone="no"?>
<svg
   height="48"
   viewBox="0 -960 960 960"
   width="48"
   version="1.1"
   id="svg1"
   sodipodi:docname="resort_icon.svg"
   inkscape:version="1.3 (0e150ed6c4, 2023-07-21)"
   xmlns:inkscape="http://www.inkscape.org/namespaces/inkscape"
   xmlns:sodipodi="http://sodipodi.sourceforge.net/DTD/sodipodi-0.dtd"
   xmlns="http://www.w3.org/2000/svg"
   xmlns:svg="http://www.w3.org/2000/svg">
  <defs
     id="defs1" />
  <sodipodi:namedview
     id="namedview1"
     pagecolor="#ffffff"
     bordercolor="#cccccc"
     borderopacity="1"
     inkscape:showpageshadow="0"
     inkscape:pageopacity="1"
     inkscape:pagecheckerboard="0"
     inkscape:deskcolor="#d1d1d1"
     inkscape:zoom="17.229167"
     inkscape:cx="24"
     inkscape:cy="24"
     inkscape:window-width="1920"
     inkscape:window-height="1009"
     inkscape:window-x="0"
     inkscape:window-y="0"
     inkscape:window-maximized="1"
     inkscape:current-layer="svg1" />
  <path
     d="M180-100.782q-33.257 0-56.238-22.98-22.98-22.981-22.98-56.238v-435q0-33.49 22.98-56.637 22.981-23.147 56.238-23.147h85.782V-780q0-33.49 22.98-56.637 22.981-23.147 56.238-23.147h270q33.49 0 56.637 23.147T694.784-780v250.216H780q33.49 0 56.637 23.147T859.784-450v270q0 33.257-23.147 56.238-23.147 22.98-56.637 22.98H533V-285H427v184.218H180ZM180-180h105v-105H180v105Zm0-165h105v-105H180v105Zm0-165h105v-105H180v105Zm165 165h105v-105H345v105Zm0-165h105v-105H345v105Zm0-165h105v-105H345v105Zm165 330h105v-105H510v105Zm0-165h105v-105H510v105Zm0-165h105v-105H510v105Zm165 495h105v-105H675v105Zm0-165h105v-105H675v105Z"
     id="path1"
     style="fill:#f3f4f6;fill-opacity:1" />
</svg>
